<mxfile host="app.diagrams.net" agent="Mozilla/5.0 (Windows NT 10.0; Win64; x64) AppleWebKit/537.36 (KHTML, like Gecko) Chrome/131.0.0.0 Safari/537.36 Edg/131.0.0.0" version="26.0.5">
  <diagram name="Page-1" id="PsAyisjMl3efkx9Q-nbc">
    <mxGraphModel dx="500" dy="328" grid="1" gridSize="10" guides="1" tooltips="1" connect="1" arrows="1" fold="1" page="0" pageScale="1" pageWidth="850" pageHeight="1100" background="none" math="0" shadow="0">
      <root>
        <mxCell id="0" />
        <mxCell id="1" parent="0" />
        <mxCell id="_Jx8cCmFo-IkI_aCgCwy-1" value="" style="group;dropTarget=0;pointerEvents=0;" parent="1" vertex="1">
          <mxGeometry x="170" y="716" width="675" height="384" as="geometry" />
        </mxCell>
        <mxCell id="_Jx8cCmFo-IkI_aCgCwy-2" value="" style="points=[[0.464,0.311,0],[0.511,0.096,0]];html=1;overflow=block;blockSpacing=1;whiteSpace=wrap;shape=image;fontSize=13;spacing=3.8;strokeColor=none;strokeOpacity=100;strokeWidth=0;image=https://images.lucid.app/images/9d76b4d7-c2d2-4088-b8fe-a08ed8702870/content;imageAspect=0;lucidId=vCMIoiN5nedn;" parent="_Jx8cCmFo-IkI_aCgCwy-1" vertex="1">
          <mxGeometry x="195" y="30" width="480" height="354" as="geometry" />
        </mxCell>
        <mxCell id="_Jx8cCmFo-IkI_aCgCwy-7" value="&lt;p style=&quot;margin-top: 0px; margin-bottom: 2px; margin-left: 0px; line-height: 80%;&quot;&gt;&lt;font style=&quot;font-size: 10px; line-height: 80%;&quot;&gt;&lt;span style=&quot;font-family: &amp;quot;Comic Sans MS&amp;quot;;&quot;&gt;Artificial Intelligence (AI):&lt;/span&gt;&lt;/font&gt;&lt;/p&gt;&lt;p style=&quot;margin-top: 0px; margin-bottom: 2px; line-height: 80%;&quot;&gt;&lt;span style=&quot;font-family: &amp;quot;Comic Sans MS&amp;quot;; font-size: 8px; background-color: transparent; color: light-dark(rgb(0, 0, 0), rgb(255, 255, 255)); line-height: 80%;&quot;&gt;Programs that can learn and act with human intelligence&lt;/span&gt;&lt;/p&gt;" style="text;html=1;whiteSpace=wrap;overflow=hidden;rounded=0;align=center;rotation=0;" parent="1" vertex="1">
          <mxGeometry x="110" y="280" width="200" height="50" as="geometry" />
        </mxCell>
        <mxCell id="_Jx8cCmFo-IkI_aCgCwy-10" style="edgeStyle=orthogonalEdgeStyle;rounded=0;orthogonalLoop=1;jettySize=auto;html=1;exitX=0.5;exitY=1;exitDx=0;exitDy=0;" parent="1" source="_Jx8cCmFo-IkI_aCgCwy-8" target="_Jx8cCmFo-IkI_aCgCwy-8" edge="1">
          <mxGeometry relative="1" as="geometry" />
        </mxCell>
        <mxCell id="_Jx8cCmFo-IkI_aCgCwy-12" value="&lt;font style=&quot;color: rgb(255, 255, 255);&quot;&gt;Data Science&lt;/font&gt;&lt;div&gt;&lt;font style=&quot;color: rgb(255, 255, 255);&quot;&gt;&lt;br&gt;&lt;/font&gt;&lt;/div&gt;&lt;div&gt;&lt;font style=&quot;color: rgb(255, 255, 255);&quot;&gt;&lt;br&gt;&lt;/font&gt;&lt;/div&gt;&lt;div&gt;&lt;font style=&quot;color: rgb(255, 255, 255);&quot;&gt;&lt;br&gt;&lt;/font&gt;&lt;/div&gt;&lt;div&gt;&lt;font style=&quot;color: rgb(255, 255, 255);&quot;&gt;&lt;br&gt;&lt;/font&gt;&lt;/div&gt;&lt;div&gt;&lt;font style=&quot;color: rgb(255, 255, 255);&quot;&gt;&lt;br&gt;&lt;/font&gt;&lt;/div&gt;&lt;div&gt;&lt;font style=&quot;color: rgb(255, 255, 255);&quot;&gt;&lt;br&gt;&lt;/font&gt;&lt;/div&gt;&lt;div&gt;&lt;font style=&quot;color: rgb(255, 255, 255);&quot;&gt;&lt;br&gt;&lt;/font&gt;&lt;/div&gt;&lt;div&gt;&lt;font style=&quot;color: rgb(255, 255, 255);&quot;&gt;&lt;br&gt;&lt;/font&gt;&lt;/div&gt;&lt;div&gt;&lt;font style=&quot;color: rgb(255, 255, 255);&quot;&gt;&lt;br&gt;&lt;/font&gt;&lt;/div&gt;&lt;div&gt;&lt;font style=&quot;color: rgb(255, 255, 255);&quot;&gt;&lt;br&gt;&lt;/font&gt;&lt;/div&gt;&lt;div&gt;&lt;font style=&quot;color: rgb(255, 255, 255);&quot;&gt;&lt;br&gt;&lt;/font&gt;&lt;/div&gt;&lt;div&gt;&lt;font style=&quot;color: rgb(255, 255, 255);&quot;&gt;&lt;br&gt;&lt;/font&gt;&lt;/div&gt;&lt;div&gt;&lt;font style=&quot;color: rgb(255, 255, 255);&quot;&gt;&lt;br&gt;&lt;/font&gt;&lt;/div&gt;&lt;div&gt;&lt;font style=&quot;color: rgb(255, 255, 255);&quot;&gt;&lt;br&gt;&lt;/font&gt;&lt;/div&gt;&lt;div&gt;&lt;font style=&quot;color: rgb(255, 255, 255);&quot;&gt;&lt;br&gt;&lt;/font&gt;&lt;/div&gt;&lt;div&gt;&lt;font style=&quot;color: rgb(255, 255, 255);&quot;&gt;&lt;br&gt;&lt;/font&gt;&lt;/div&gt;&lt;div&gt;&lt;br&gt;&lt;/div&gt;" style="ellipse;whiteSpace=wrap;html=1;aspect=fixed;fillColor=light-dark(#FF3333,#004234);gradientColor=light-dark(#000000,#FF3333);strokeColor=none;gradientDirection=east;movable=0;resizable=0;rotatable=0;deletable=0;editable=0;locked=1;connectable=0;" parent="1" vertex="1">
          <mxGeometry x="330" y="250" width="310" height="310" as="geometry" />
        </mxCell>
        <mxCell id="_Jx8cCmFo-IkI_aCgCwy-8" value="Artificial Intelligence&lt;div&gt;&lt;br&gt;&lt;/div&gt;&lt;div&gt;&lt;br&gt;&lt;/div&gt;&lt;div&gt;&lt;br&gt;&lt;/div&gt;&lt;div&gt;&lt;br&gt;&lt;/div&gt;&lt;div&gt;&lt;br&gt;&lt;/div&gt;&lt;div&gt;&lt;br&gt;&lt;/div&gt;&lt;div&gt;&lt;br&gt;&lt;/div&gt;&lt;div&gt;&lt;br&gt;&lt;/div&gt;&lt;div&gt;&lt;br&gt;&lt;/div&gt;&lt;div&gt;&lt;br&gt;&lt;/div&gt;&lt;div&gt;&lt;br&gt;&lt;/div&gt;&lt;div&gt;&lt;br&gt;&lt;/div&gt;&lt;div&gt;&lt;br&gt;&lt;/div&gt;&lt;div&gt;&lt;br&gt;&lt;/div&gt;" style="ellipse;whiteSpace=wrap;html=1;aspect=fixed;fillColor=light-dark(#FF3333,#004234);strokeColor=none;align=center;verticalAlign=middle;fontFamily=Helvetica;fontSize=12;fontColor=#FFFFFF;gradientColor=light-dark(#000000,#FF3333);gradientDirection=east;" parent="1" vertex="1">
          <mxGeometry x="470" y="300" width="270" height="270" as="geometry" />
        </mxCell>
        <mxCell id="_Jx8cCmFo-IkI_aCgCwy-9" value="Machine Learning&lt;div&gt;&lt;br&gt;&lt;/div&gt;&lt;div&gt;&lt;br&gt;&lt;/div&gt;&lt;div&gt;&lt;br&gt;&lt;/div&gt;&lt;div&gt;&lt;br&gt;&lt;/div&gt;&lt;div&gt;&lt;br&gt;&lt;/div&gt;&lt;div&gt;&lt;br&gt;&lt;/div&gt;&lt;div&gt;&lt;br&gt;&lt;/div&gt;&lt;div&gt;&lt;br&gt;&lt;/div&gt;&lt;div&gt;&lt;br&gt;&lt;/div&gt;&lt;div&gt;&lt;br&gt;&lt;/div&gt;" style="ellipse;whiteSpace=wrap;html=1;aspect=fixed;fillColor=#2DFF96;opacity=80;gradientColor=default;gradientDirection=south;fontColor=#FFFFFF;strokeColor=none;" parent="1" vertex="1">
          <mxGeometry x="500" y="350" width="210" height="210" as="geometry" />
        </mxCell>
        <mxCell id="_Jx8cCmFo-IkI_aCgCwy-11" value="Deep Learning" style="ellipse;whiteSpace=wrap;html=1;aspect=fixed;fillColor=#A9C4EB;opacity=80;gradientColor=default;fontColor=#FFFFFF;strokeColor=none;" parent="1" vertex="1">
          <mxGeometry x="532.5" y="400" width="145" height="145" as="geometry" />
        </mxCell>
        <mxCell id="_Jx8cCmFo-IkI_aCgCwy-5" value="" style="html=1;jettySize=18;whiteSpace=wrap;overflow=block;blockSpacing=1;fontSize=13;strokeColor=#3a414a;strokeOpacity=100;strokeWidth=0.8;rounded=1;arcSize=12;curved=1;startArrow=block;startFill=1;endArrow=none;lucidId=cTMIo2-lWn8W;" parent="1" source="_Jx8cCmFo-IkI_aCgCwy-7" edge="1">
          <mxGeometry width="100" height="100" relative="1" as="geometry">
            <mxPoint x="484.4000000000001" y="656" as="sourcePoint" />
            <mxPoint x="550" y="390" as="targetPoint" />
          </mxGeometry>
        </mxCell>
        <mxCell id="_Jx8cCmFo-IkI_aCgCwy-13" value="" style="endArrow=classic;html=1;rounded=0;" parent="1" edge="1">
          <mxGeometry width="50" height="50" relative="1" as="geometry">
            <mxPoint x="558" y="466" as="sourcePoint" />
            <mxPoint x="310" y="380" as="targetPoint" />
          </mxGeometry>
        </mxCell>
        <mxCell id="_Jx8cCmFo-IkI_aCgCwy-26" value="" style="shape=stencil(hVZJcuMwDHyNrl0gwPWc5R+pijNWjWOnHGeW3w80KiUGZSE3WkYT7EYD5CB37/unt93A9H45n37ufo/Pl/0g9wPzeNzvzuNFV4M8DHL3cjrvfpxPH8fn+ffb0xQ5rV5Pv6Yd/sw4yYg8oZj+zl8CoYb/Xx5nwGE8XgFiBosBCErejk8FpZh4AvN2fG6osYtPaTu+BgS7f0Rxzt90u2oJM7g6gAJqBsCM6DAORCCyEkUEL0UD2SJMKjsitQhOBqAyiwOoeTnAAsgZ4shUErKVtahMDussi20+ARFJHGME1NRnaOQ4L4Cs83JxMwgj2Tqkita2AVwQrPdiRXBIc0KypLWfgp+h2DqoXcXjoN1lSQcV2ql0ZBTrpYTi9E9a1Y3QHK/mtO5PcqpWtEbZMkbznFp6wg3REagliC1yqMsJt5ot2gMJfdedXc2i3wptNSK/RL7NuS2m+XS2IHsi3QR4GbRqlnQRNG+sqia2O6u4ztbmjbYOOmmrYww9MdkMqps3wxIjWw5TKR0OOjA6a1+N5tvdFnrWOv2bYyYOvfuaQBwz6WVTbXvqaM6eTOBurBa3P1dTNddlbN6MX91V39wktNz2V1dVNL7Qxddr42U8HObHyvX//etEP80vG3n4Bw==);lineShape=1;strokeColor=default;" parent="1" vertex="1">
          <mxGeometry x="389.8375384599997" y="257.3462707641139" width="0.5512463013014778" height="0.5509487189718316" as="geometry" />
        </mxCell>
        <mxCell id="_Jx8cCmFo-IkI_aCgCwy-27" value="" style="shape=stencil(lVrZchs3EPwavk7hGFzPjvMfrrIcsaJILlnO8fcZhIUV0djtjd4kcmYXc/c0eImffjx++f5wCe7H2+vL7w9/Xb++PV7iL5cQrs+PD6/XN/vrEj9f4qdvL68Pv72+/Hz+evv/+5cu2f/64+XP/oS/b3pOfOhKwf1z+0Cllv8++PUm/nR9nsQ1TeJRSjsW96Lz072UfCwexGUQz56JlwriiZw9jnffiddjcZUcUZyYmiSXD5w9j6Peicdj8SKhobgei1fRRTyRMDlxGKdM4uTta/R8Jp73UdLyfCafJOlH5IuUWd5JYYnjJGSQj47IR/TPVjb78lmcA3lH/B+auILy5PkxYDqYPLE3JlG01xF7Yx25+y7fiP/VS5zlg0Rir6ronD9RGjmPFtH5+ZYgpFq0SZ39U8Sz2g3S5vPYA8jzU0J7faAGpDLqb1NI4kmFpcUCX0dz3O8nYVi4hcBLIDZkRZ9ax0sk6XIe/W9TKFJJlHNFo6MdiXipuBHVTSHSnlvMaFCwQ5IjlYg2WKoXktklLfORt8aSx9ebQpRKWnWpEufepZk2r9KkzW7t6U5sqB6PlHT4bV8hSpy9ZPlbidHVvDTbkK0jkNla84ANm4LhDpJ8teKRLLsC8VJtOL4tuzJ5Q3MjTJsCT77m0YbCbWgBIUIpI/b7ChHbpMWeKlhc5zdY7D1JDVMACGUKrJE1myTzZLNkYW2mLaOwKsWAbWkzliwsl1oRBzZUOt1MAdBITxau0GYbLFk8Sb5m2Tq/wZIlMqOtC83ZasnCemtry5GyKIv00jVMgXWNrjDHoW1T+ABEOgy1mcVgyc4rKkXBXWHuZPYJG+xdwaPCyRtqQoXGbSgA5B0HV13D4SsqNyIrKtDO1LCEuptY3zCFjIFgq9SOQhmhOVQoqMAgYjcaIpcpJusKBRWUG401lyWw/m1hWo50kn11OVI8qbnlSIUfCYFroTbsFWkZZn2grPWkSsHsdtoHIiokXkLo2EZBVv96qbnGQ4fJsTXQw/RbWhODcR9XqFIh1pli1/ca3hSSNOalijtEU9rye+rAnIsUWfaiBxsChXFmIuaSG6DoED4A3qiUouo+ATRgyyJ7gy1/c2oY/M1MQZGdMAikLL11QTSRUlUdKILRnqdGGM+7Q5aFBc6jDR27ssA5ZNtsM2KcRl0mhOFvx3aIBWR1hM+2lK2XbjuENUu2OCWkZTLf5friBG9w1EvVYxxSHpP1aPkDXiCFkY5H62WY36AcMvUFdp5yto/SN6TBbW0KStmxvlfBxuslsK09YBxio7lU3MIvZZpLtkwiLxBpTXcyZLYhOuol22/jXA+h0KHYCZ35DZ3AZqRUwwU2OJpLnZQCFqtQmjWlUS53LFY84dWA9gp0gdV1sNOZqAVpgUqJ1k48zlHI44biiNgEopVfj3TidG7EcTDx/5OYDZTYXIlfLr8Sy4HyYytxHejg6cR4BHl20dCJdzwPA/Wd2Mf7pkDyZ704UAov1ouJE/nl4kNP4DZeHHD55d5GKbmy3Aop9c5y56TjGmS/enGh0jFK9msFCTcdw3A/lREfKF2NApJtSumOZWIovwDDMlS6HTjsUoliUodDPtN9342Yb7hmYK8DcQDtfJ8z8YTiBItuRNfdYag4+L3QOwUTB1RJM3KppkxJh2VxzfRKdkecoZLtyu09CXhU4eyJdmKHoCqdeQZw5GjMR1HFtsRv/U/E7Y/3Hxh8uz493X6fcP89/iDBPrr9mCF+/hc=);lineShape=1;strokeColor=default;" parent="1" vertex="1">
          <mxGeometry x="300.87227143192155" y="301.96616461075564" width="87.22777267230046" height="10.156689544688293" as="geometry" />
        </mxCell>
        <mxCell id="_Jx8cCmFo-IkI_aCgCwy-28" value="" style="shape=stencil(lVnbchoxDP0aXjW2fJOf0/Q/MhPSME1DhqS3v6+2jAHL60N4A6+O17odSd5NuHt/fnjbbti9fxz237e/d48fz5vwZcO8e33eHnYf+msT7jfh7ml/2H477H++Ph7/vz0sksuvH/tfyw5/jjhHnBcQu79twdX/C1+P4i+71068FCvu5uKeojfiOc7FmYLrxD3lMBcPFPrdmVyai0cq1YhXnotniqkTj5SBuFAInXiGqlaKvSGFfAaGVMNLJ68bgO09U4q9KT3VAgCqXa+uT21lHVCasU+A2gy8DqiUehXUgVFANDB547BCGRiJE/neB8FTQACxRwqJEoo4NWufLqESI0Am7nWITAUcKXpyfWDETAI8HVOLswZInjwwa1Q/9EdKsSXSKiANoZGEGBxJHwv3ueCJAU1kzcTerDlSRIBsiSVrOAKz5tr2a4DiyIPwLsolvQ66UhBAT9zrsKyAfCiZijlSbkm7DqiNa08AoQIcJ45qH966woAEJFDqlRYmATpIotpnnERIe6I0ad6gPAneUJ21ktR2yHWAnrj3Q1USQEwcrZWq8hLI6apu6vNh2QIEXy2U+pzWLRikaBVbHRQgIB9qHcqD1hMMsFaSxrYzgPG0AhC3LoBiARlEq3fOxrci6o0IpWOAWDmURtMVAFsAooHFsMkCUJsxuu5CrSli0LqicKqtc7kACPadKXPLFlcAwxsCDqc06IAaz7OfLoKjYKVtlkp759RKQ/jBLFXAmHSIaU6hcwG4orQMSYeq1hIIow5X0nrgAUivCqgWgKhpPUn9lZwTC4hXANECMvacDG8QUBiXx7emXOkT4jNZfSNCbE+zrOA6FE04lWaIWaWLxrC5Jcmslorh19T62Vm1NgOlrlTcD9ha6lvXP+s42HQcAvsB7WkMg2uLEoDS2jWZZlSbIDRFaBcmfQ6Jb9V1vfOTAeAooGY0Wy4ruLxrrxr6jNAt0EBafCvNF+0uYnztwM0kpFsgAtce37SKWVqKzKYIE3y6BRoKdE4pfXhnhnVRJyFTF1OF/XEcqlZKcAyPp/nzBOA2TK0DnO1oIi5zOpH63tMRz1o685rBRt+JWEOnanNzEgqsWhxtTdF3IivxMJxxhROpr5b5WHkJ6OCzjSXGVwl+GP98acQzu6EJvdI+QG71jnJ/JO9xu2Hz59SaTi6w2AxaOJ/H+66I4tRWt9ham8nVnrmWjDCTuXHVKYBaizy5lmQTDdAyrt3YnMURlw5XqgxHMWftzrBiuubz8x0pqpen69yzOFbV2d0zPIzJQ99SfyZu73dRigziDrLCcBjX6P1zqjrY+A6GdLCLGNzk4A3YEASKh4e58db+irj+OH8geNq9vBy/L1w+tx8UdOn4MSLc/wM=);lineShape=1;strokeColor=default;" parent="1" vertex="1">
          <mxGeometry x="388.0083550552837" y="311.902974820089" width="45.908607803089346" height="11.947520216787936" as="geometry" />
        </mxCell>
        <mxCell id="_Jx8cCmFo-IkI_aCgCwy-29" value="" style="shape=stencil(lVhJchsxDHyNrihwAZez4/zDVZZjVRzLJctZfh9MVByJ4EyPc5OGaBIEGht34e79+eFtv/P8fj4dv+9/HR7Pz7vwZef94fV5fzqc9dcu3O/C3dPxtP92On68Pl7+vz1MktOvH8ef0w6/Lzim7CaQ5z/tA8u/D18v4i+H1xtxT64a8QrEA8XSiTvyQFxI+t09iV8Xz+RTJx6Jw7p4pRw6caEElHGefK98poDkI0mvjmNyDgAyJQMI5BIwvvqmt48TihEAAoX+yq7AO6hJSu494CgxABTK3AMCFcQIR8UAUvuyDBjMqmfWCgADLfTMCvwQmXxvpSDEGQAGswY1K3BcTM0mM1PVrOAEmcNqBiRicAcRe4eodAcqSW0KzNEQKQA/pEiud5wUciDcUmmx3gDJt2SzHM5Kjf4OKZEUAIiWS6nCAMq57TeHtIcJqbDNSFlaSlsGeKo9+fTMAi5dhFzsAHomBCTK/R2mM0E8lEJiTlC7AStVbuyfAamZYRngBpXU9wgQKPVm1S0YqaT07suUboFya00UqwVk4LhabSLTLSoIUQWYmK5aH5BK1VJDAShEHasjjE6l1aTVI4oFoOQ6XcKYqW6dkMUCUCbTZRNyk5KgqOtyMD3D1Q5rCDcegT1h7bpxidIC5rNmKjYithxRGhVuXb2hkrkDZpMCqrOADb6yUSk1Bq8BTMJXQMbciCMA9DOTm6IFFEzXMlzabURQsADUAE0AE0GlFcrPAxJqW0eVKiy8C5fWIARVbsGsFTZxC46rsAZN1BhO2OCSJR/uZ5YBiHyJvLdcSoga0c4PWpUEqRQWilZE1HAUjUrcWqLl0j44Tr8wak+Um6a05+aZtW7DtLrasKDSrr2FKe0lEKMTfGP/TQPkgOPK0K5PLRaoKLps/KCN40ZfKX1u1dYUeVqXY08+bX5RkUvZzllJoJVSGFpdbU0BNbS/Dz2XJLVxcxkQbZoRD/0gQ28cN6cg6VWKEXZ90bcObAYwnCBCtXVah8EIrBSS7X903ERld1ruC7sOl/AEXTYTteZCPFGbJKADMqrTOrObZKwjeAUq6TL38eAZBpCrtjlxGZ6gy6FnqxOYW50Ol/2lnaYF9HbiiQ1gfhxZefwxbtCpCOw/txVzuMF3LqHQ52GBBTdY8Qhj2VFlI476YW6EvL6ioUGGra88FZCJ2L4A+laD1sTt7ihHcHvBu4qjtDgMSK5Vn8+KB8D7QRneMKS5KsP3xcGQ3AafNTfZh1qUnQcS8IYhJVtxSLH/ejXeFNcf1wfqp8PLy+V9+3bdPmjrp8tjeLj/Cw==);lineShape=1;strokeColor=default;" parent="1" vertex="1">
          <mxGeometry x="434.47281961609406" y="324.1689836421424" width="21.006894984176242" height="7.991042047099498" as="geometry" />
        </mxCell>
        <mxCell id="_Jx8cCmFo-IkI_aCgCwy-30" value="" style="shape=stencil(lVbLctswDPwaXXdIkASBc5r+R2bi1Jq6dsZxX39fqhqlAiUj0xtFLQhydwFySA9vx6fXw0Dh7Xa9fD38HJ9vxyF9GojG8/FwHW9tNKTHIT28XK6HL9fL9/Pz/P36NCGn0bfLj2mFX3NcQAhTEIXf80QSFPk783nGn8bzCk/IYvDEoHwfr+Bq8LGAgrN+gNgNMdjBp4xKNgFSuY/PCmWDf2dgF88Zmu2BwXofXwXBEqSIDj/S8NHuXxbK9glNYJsgBZCjmGYUmyETKjsBAdlKUDIkOmeIG80KopOBFUVNQKVFxt2AUhCsapVRnS0l7W3xQQC1Hf/XliJBZXNoz3lIsmHVcd67qmvZnPUjopV58oVjpMaHPfBkPEe0yD2lzdnJYVQhVjNanLvPT6PDVtoHldl+dwdwK7/mvtW1zuK5uizHW7cuJ0AJySow9Uav0HIvwdR8neayH+DVvkBsQBYkxxQxbC6EIq5sLUUollaBOrq1Bha7WhZkR7gmBFtehd0GVkvvpJYzef0oI9sMWhfz7vcj6llaEXevIXXmUHXLjSqiTaEM8eqfEexVqxHVuXq4r0/JYKfjbZzReFaDb4N/74yX8XSanynr//27pE3Nb5r0+Ac=);lineShape=1;strokeColor=default;" parent="1" vertex="1">
          <mxGeometry x="429.1797669474612" y="335.76925903166773" width="0.3381895101619643" height="0.4148055774835438" as="geometry" />
        </mxCell>
        <mxCell id="EpJQi5AX8sjNgsQzGJPa-1" value="" style="shape=stencil(rVnLbhxHDPyavRLNfvfZcf7DgOVoEUUyZDmJ/96cbDiarpmpRYDc5HXXNN8ssi/pw7fHT18fLjF8e3t9+f3hr+vnt8dL+uUS4/X58eH1+mZ/XdLHS/rw5eX14bfXl+/Pn2///vppObn89cfLn8sX/r7hRpeSFlQMP/79ZUgc//zy6w3wdH3eAprUPgOq9EQAVXKYAYnfUEQBECQoASSpcQL0KoXdEEVnHXqSwXQIUmcrdZXYzgF9oEhtSKoE0CXNN7QqoxBAlTbr0LJEokMvEkAklZQJIMqYb6hdIvFDDzLmG2qRSG5oXWqZAVFiJICKVipDlHi6mV/rDLBPELMuNgGARRdR2mzSZx2KSiChUU0AnQC5e3QdA5K0MQMqNWvd6ZCzBHJD6R79K0DdlccAy688AdKgRaBkj5wV0GQQHcyI4LhUKCCbAHCDKU1CIzfpc7SmKJkBTIA2A8zTJJbM6nHWIZqQJDRyxHyI3bP8GKCu4gpo0ki0mpvKrEOsUolZU3cVV0CRQgpZqp4uKyBLJUqbXxUAieZDSrsbIlc6evtYASo9EEDwSroCgmSig7mpzKVSh2RiVrN6n0NDrQEQkczqEW5o3sSOAUk6AKwRE8eZEfOstBbqODNimIuAZhreZpOmCIgkgRabzOGtydnHMaAhdTCAshsspwEQvY4cA7K0HaCQaDUBykAA87TqDqDUrGtN2Zxnju6SC55nfKx5S17PB+nkvJl04HmWz9kb8uY8zR3pc9gN5ynH9hQFgkv7eZDW4DjjC6uoKzG883WdbdNoXQmYYVUC8awdn2MzS6HChLlCRPfcyXGsQLQ8BG8TfjzcOQ6JGDyVT7waGxxnDEeRvweaIop8iDNlGyegz9PxI6LsmRLG3fHis8WZMHM6NUqDFDm71VzydcXeO2gXUmRAg1pmLSzvxxkjC8hCuwfRWQBXsAyrY7v0MNJLKwEkX6ERuUvtJJkY0mSfvx5durOyhMk3aOGACSPQAUMxxFbd/4/jyWvcpnCQKpa9gr7nKpsIK3pVaYg1NGSklL/vqKk0VpYOooASIvXPbUoHy9aEjCu7p8/YTYf5mhrTKCXIz2uT8bM4B1r17nxGAGFcqZydGRWY9W20A+7byB0WHn1Yei9QLFEW90C0Be8VZzQf1nGqtHwv1R1uiF7mzkaVtuPUrLmlsEuwTFdZKe4Io2nFEj5h1C2jCgkjGxkTiNSc1J4NpbCkUc7TbOyFJc0yvLChdOA2YRmPiNI2uicA8LkgRxzo7szJOXtH2YzubI+aK65FLd0YPc3dW9xmX8FYWwk7gJmVxFLZbWqTUseVjNtmi65COmWp0ubQsOhiSi8bRwA0OgHW3UBnwUIXfhmtZMHCynZdmclm4cfqah24czHfsxRtOwKdO92YL8toYK1K6VOr+K5grqSr3YH7bHMlE6nrwfK4sCV+wknZXMkmpF5wDVTXcDwGNBwfzZVsSuoDFxy1003tULyhRa+Fx4Dkw8gKKNJIfxgZOU/r9x6EIIG6tVVipWH5NXu6V99VHQM6vo2MQFvWGLuxJtLXFwPgDbzMGADm28G76Bj4+jIK54ZhN4GMSoez5QrYdTSvC2cAnM8aTYixVvcV0L3cngGgVtoviS2/Bq4Ilzu5SArcIfB5xEQeBa9gG6dFx92bKk2h//wIex9gf7y/+X65Pj3dnoy3/49vxPbT7X05ffwJ);lineShape=1;strokeColor=default;" vertex="1" parent="1">
          <mxGeometry x="296.7729823640125" y="287.26730999413155" width="239.44833785025116" height="56.942174879260165" as="geometry" />
        </mxCell>
        <mxCell id="EpJQi5AX8sjNgsQzGJPa-2" value="" style="shape=stencil(lVfZjtswDPwavxISdT9vt/+xwGaboGmyyKbX35eCodSk7UH75jgakxwOD03h6eP48n6Y2H3cb9evh5+n1/txCp8m5tPleLid7vI0hecpPL1db4cvt+v3y+v8+/2ln+xP364/+hd+zbiUqcSOYvd7fuPLePN5BpxPlwUgVgpZATiS431ASBRYAQJTavsAFkDRgErV7wPEY68BMVACMfhExVmXcgYuVfJNAwpl4JJ4zCuXYgG0NqrapeTJAUD2FIMGNPIghsLktYWcR2Y2AVUc0ID+CZC4lihrluQTPgBAseKrgRygtTVirwFiE1lo1JIGVCrYQtUxNE8NW3Ba3i1SA3mQoKMOur+pkFZTQJ0GkLjGVLX4vHMjl9sIZ4taTKAuICw6E0SF+q55iPMBEPWBRFRh0UQtRY0BlleJCsUQqVStDWkkCJCo6YKQT3ACAGkSxoKICbEkcjUF4Sgh9bENWgAeZXpFqwAKAggnpuSYGHWBajuZsJQRQKTWbB4yoHWh5kWqK+BVTART1REXxFrfMihRzeXRrRcFgSpI1Fw0r731gKilD/lqAQ3XaCkWgILugJUFBCjR5kEEHEEMedXKpOGjwZtWRV0K3DYiWzEVN7aD7UntKWmXcoSDl2Xw6k7WBy+o0ZWUEo/RvXl+Je7wmEnbWbBplgXKoe2nrla+BpcZiSDriL2kBegiOjuAZMIBA7L8GFl4YqQKNybsOO/Gyrh9XkQRzHmka1Gd0YSDi48s0WzPNxBvKtYfhoMn1TE1HpIYKt8+3yz/aVT2dlk6u3EXavi8qUrvxr67B3C6s3geFO9FEHR3FMmhS4NQZLqjz2On2cvZ/118/gEgD3/vWW+n83m+pi3/t/cyeTXf6cLzHw==);lineShape=1;strokeColor=default;" vertex="1" parent="1">
          <mxGeometry x="294.96682702500675" y="281.80139890830606" width="29.605894299911142" height="23.13809682459771" as="geometry" />
        </mxCell>
        <mxCell id="EpJQi5AX8sjNgsQzGJPa-14" value="" style="shape=stencil(lVjLctswDPwaXzEE3zyn6X9kJk7jaRpnkvT194XqUDZX0npysyWuCIDAYsFduHl7vHvZ77x7e389ft//Pty/P+7Cl533h+fH/evh3X7twu0u3DwcX/ffXo8/n+9P/1/uppXTrx/HX9MX/pxwrUppE8q7vx9PmmT3/8nXE+Dp8HwJKFLDCJifrAOyeNghSqoEkGR6dwnw4iMBRHF1BDhxzAcvefShFvHMBycljYAgNW0DapUEANfDsA5IkscolUx9qB6jVFQC8aGYSaPTOfc91wFRohsBKrUQgEOTUqFO59nFGeClER/MgDiedDSv8jZgMkBHQJRCcskMgPSOKo6YZAZ8fK8DQpFEnI5JXBkBkQNU8uhD0F60q4BgMRlN8k08qbhgyTdmqy/ilADsmGCHKI3UQ3ASYYcgjvjgqyjsoN2rdUDqmTMDnKgngIAnrZWmtxkAJKBFCilRbVjTmjstrAOK5NFpTdRpe53HilMrWlIPGiSPBWRPIjkH1UWUvCQSJbWoA0ApoGJ22xcyY5nO1DPZ02Iwikmw3JEjiBLGE6i9WtfzunPDTMISSN04SaOviXKL8eloux0uMcZhGwxS6NeBfI36CEk4dNVTirA0GFlOOxNvLIde42jSOKws244VFtrO9YE10oxfJ4E0fsbliS6vwAqipGQ92q6UaT12FztVxoL9EM85w4pvwQaWkdTVNGZkuhJ3X2A5UzQOm5AtJ0zgkGhST9GN5QFdzbQ81EMgGzVmEXduDCz3VFiZMcCptCu4TlrnBC50ecLi83R5w687kpGKpGfLWUfr+u+8PNAE/tTygAlszY/YHnGYCp0aNnpTXJQHE+Q4tWTayqq00dVC9ZAuJFrtcn59vV9MXTzyVhCgVWxH0hJM3FRoIUr7n8knBHiqrE2ggWZUfmAT9wJ3RzoHWkYAHZsEZOlsZ+rHRmheBaZ7aw/ihYwtLKUXs+xUA2SHELAiJ/YhNG7jBGSehYExRKh4cBYGpnttJML5w2QdAyTUFzZDVQZoCzEVKSAZgQOg9na2NZoCt0xekQ5znr5ngFUIOQcbr+NYcclRqWEDPCiZZKMp2aHELhlnAD+H0lCO50D1SfXdxRlQaZevGRV88TSstaHqKKW3z/XLIMX+Vx3lpRZQedRw7QYMxPPkFbvQstfjOVQjAeZD6RbP5M1VaLMSHX2YbvHYpVzrBsyATCdNA9SIAJYabcHe7cotXkP2NgDTdOoWM5LFgQ0a0xYFAZkdRMNpoPEBdYprRUDkYYJLhfPRbAHiYofGAQF6lrtyAdtQLZ8Dt5V+beEEo+PP32tfB9iP8zX6w+Hp6XQLf/ker93t0enKPtz+Aw==);lineShape=1;strokeColor=default;" vertex="1" parent="1">
          <mxGeometry x="302.03255279345876" y="346.1991892091944" width="227.6808281617066" height="87.51285040411517" as="geometry" />
        </mxCell>
        <mxCell id="EpJQi5AX8sjNgsQzGJPa-17" value="" style="shape=stencil(lZbdUttADIWfxrdnpNX+XlN4D2YIjYc0YUKg5e3R1mOIlkSd3vnv88pHR8c7yc3L9v55MwV6OR0PT5vf88NpO8mPKYR5v90c55MeTXI7yc3j4bj5eTy87h+W8+f7/mQ/+nV462/4s3CNUEKnAr0vV2JCan+v3C3Abt6fAxmlGCAJWnWAhsoGyIKaXSCJAUoEeyUltGyAqis4QG2IFmiMFh1AVbIltYLE14FCyFYlJgLRdSITJNolGtiRKRGq7ZzqQE4jooBtI2oFO4BUkAVK84EMsrrmBhIHKGMjUkV1VIphXCGqW5zO6W1pFggITklaQK4G0CKzs0KuaMkCGSE53lARrZlU6OB8dG+TXUFbGfyBoGFG6V8zykPjCLFcB87c/OkNWoPh8hI6MBbQofJa3UdysGtbX3FZJh36YUg1GJySeqzYkr6i53KrBeXbjFYnBjQa6wBofHozmhCHoVZZHTN1QP4HkDima09Dx0whrm7+BBKyE0yc1rQ+i43ofHRBtW4tDHHaEMYwzrym7cXn1ar2AxKvKXLteWuLSODg1ZNsYgRfUc0TWz831xQcR4GYkZweBxmBBHEmRz0x/Bm0AY6garpBofHfpgdfO47HebdbNizn98cdil5adjdy+wE=);lineShape=1;strokeColor=default;" vertex="1" parent="1">
          <mxGeometry x="269.52984197208184" y="213.5221170626022" width="2.51462274023811" height="2.522336761604606" as="geometry" />
        </mxCell>
        <mxCell id="EpJQi5AX8sjNgsQzGJPa-18" value="" style="shape=stencil(7VnbbhQxDP2afbXiOM7lmct/VKLQFaVFpdz+Hg+rDBNn5ixIvCDxtp3aM/Ht+Ng5yYtPdzcfb08xfHp+enx/+/X85vnuJC9PMZ4f7m6fzs/26ySvTvLi7ePT7bunx88Pby5/f7xZJJdfHx6/LG/4dtFTCrIoxfD98iAmCvHnk9cX+fvzw0Y+UyyDvAjVhORLHuRToqJIXkd5zVTheUIb5HOlWI/l1b+/VAoFyTMP8tU8EJB8GP3TmBqw194/nqeZB6B8cPKFEh/Lp+69Vb7C8ydK6uUbkBdqzt7W33Agn9jLo/hGqmGQ5xAogANF4ulADQSYSauXL4LkQ/LyAs4TSJt3aIHy0QWgwPObNyZ5BgFYvbdJuNiQvTzaWy3kwD+RyujPEiGgKMkIQGoFCRLa0ndMoCRUUHyZ4miABBLgIE4kY8lw7THZVyhTSkBIYUuwMSUiJRABq0kdQ3ylAirVESOs6EAExD4/nt98lkGIRSm5phF7Fu4rFCqjS+2bDZgs5iIX5YhhjimNaZ1WL+8rGDCOebp8MwOFvGNDAZ0vVeJRwZpVRV8wJHR5wTC1NZKMCpapsNYyyehWy10FNmgjLf5ICN6zZc7o1lhg8mXpdGBDKBJo4Fl9x7HACVIoPdU2FCSCOBTxEGkQI8CGslKC9Ui1l9S+gvVU9kYzOFKduogVuYAvVO1NaRM4BV5qK0qvCkaVQMWZgqsHq8ECvNSEolMIkIq05LmpubUhG9STQVNgAAJtZrMFsp2FbOn0BRA4a/bKkw0AWxc2od5LjBUc2ieM3hsCtclvRAEWRuTOlKihUDdPGgw9BbvJNelUIM4sJGfMDYPbgHOjTQowN1LH3s2RUIOw/HbMx4yuKHLieUO6WnLZxcG4GECBRcF9IfaMPzyS67uhA/qh0a5GG2RXi1ungkio5JTqXKPI6OJHJMGM0pKPq1fIV9I7eKPzlQJyycd9rvztGo1wLFlgwGVf6uzg7yjY4JucmyLscjV5tmF+RZ26TlTdjoQCUQwkxtzQABmTzSKOYqn2V+yTh+rHMeNQiHxnI+tj4HQt832F2LF3A0zIhhwmL0nHhX0SVzoMbSpIEU1Uyi5wDFNjVrCZBXFj80l2fGZlmkdUl13jVUgTLRHEwXeEOGNeV+fWBpucobvbHJgbUODSNEpbKAuwQSYkU4ZekikOVkAM4mC002WrpL5w2Vdgvw+zSGc8jDoSx9o3NPsK4o3GCzcbhh0PXSZ+oMArUVhNCHheV79SErzS4Ni5+aaxowGieRNs7kpoQvELARtZGLw/+1owaP6/lNzK/19K/lNLyeAXHw0DY/AdsK5IeeT/MUGNaWRQkNPwnDHlnADCWAW6FdkDlAjzIbuOr3CIDL6AraRRswzTsiD1e5UDeb8KE7grCH1a3CwYEecPnl+bPFrxsF/YLJs26E83ANsTQU3MD/ER9ySzLk/yqG/7BrCs5QCTSP5WyuQbBGi3tbATKgToOuZnXJc9Rw3jj24dr8vbj19XnG/P9/eXG9Lt//2VqD26XKfKqx8=);lineShape=1;strokeColor=default;" vertex="1" parent="1">
          <mxGeometry x="263.6463417207276" y="232.53770479518585" width="19.500739347259923" height="14.009794540319426" as="geometry" />
        </mxCell>
        <mxCell id="EpJQi5AX8sjNgsQzGJPa-19" value="" style="shape=stencil(7VvJch03DPwaXVncl7OT/IerLMeqOJbLdra/TzMKR4+NmVYlJx9000I8EgTQaAB8d+nN1w9vP9/fRf/125fHX+7/eHj37cNd+uEuxodPH+6/PHzDT3fpx7v05v3jl/ufvzz+9und0++f386V86dfH3+fn/Dnk1yILoUpFf1f//4lu1b++ctPTwIfHz7tAr1tAjG43IRAcsFvAsm74eUObd8hY88sBILr+w6lupCEgHepbAK1uyiU7q7tG7TuslChulG39b26Iu6ouNS39SO6LDTOLox9fXWtXq+HkfcbDd47LxTwS71jA1yBONDxacf64qo4kDcK+3XF5xZzZf/8jivo1+uTi7vCrbn567UB/H6eFtZfLgzc9/W1uDGUAw1yuOiq+Hy4dKYNwvqIc4Hs4n5DNbssNA7V5d2H6lhGORfoLu1O3XBr6kiDle4wchBeCqUpbMpCp3MB4AIJdKk07EaBAIGhAqczFvUmHSMBi/Zr7clV4Rkpu7oDcBvSVRNCnXw1S/BKnYNhWlrtMJyP7N1e4CmOVPMu0FxVR6qMF4i3om6pGATGX7QA5QRcaxaWxpHGrjQMF5TAYIzsQVo6B86c7bDMuUDma21x5dJzgeYSgUCSuTkPhpmSVmo5x0nA4n4k5Ga1Q4krEx/ZP8rUCYG+xwPAvImIw4nTbjhAW1c64E72I4FxRLVDXNj+nD5lxGEHvyPfWN54tT5QOpRQPFXm9V5lN0DQrrHO5lg/eH1R+h4A9LxeOkVebOjm89X9ZE63fUXG+friAp+nq/NY/rWy6dX6kmm9Qi+sp0CGAylALQd7uhHI2qcb+TQYp0Av+HTafRphpjJhAWnfbYbMFURyBraU/Ui5aFLbGb0KSJvaoS0Vb2m8grvm8u4XoIXKsXEkItrgnSqLQOlmGInElmRIEtBLxZrRAWlHuQaII8EdskhVxUtZ/z6uVfO2Oph74qKV0jONGV9SADYZzh5AMUpmONkBRZwm3A3hQoRbFkhYT/zihQPVxQ2OA60Nr9YT8QwL067Wjz1telkRwvFDpPUqOLGeINJLiMT62mi9Khawfpj16vOPsLpZr/TtnHK8ZNlY3839KHsZzuwXj7laHwjh9X0ixgjgV06/XL+fJzovoBH6UtCXhcZX9srkn1FW5IhI4hQ4keLXiHlPzDG/hConMKR09qZv1BfRuAK6Zmtm4UX4dzF9CFWg4kjUiOhRpuUJpZQOsuRSDQkn8w6qVoPhiHy1I7NfuUajLFskIW/dFEa69OqBlZ6mFNfaE+fxlmWdgyQcSaDpI1kd+kLYU4ERuHeBHVSRMPKiKodAXRzuXKAyxEylheGGzYFDUryRTtpgytKza2cYW1fXmgwXGRLnIcC9iyETCbyf+2B9pa4rAW90UJaGt1IqrwABca2zj0A7VMnY5g6Z7aBqZghQRTs7PCL998jNjtleVB3zyO0UCHjlGsnYIS1KcOVLbAft3t1UnRBQQAYB7tqisFS3VLiOn21hZbjCWR2WbsqXyrrEG18qSiBzt3DWSFogJRZQzQIYziZFReYhEIMR0L7E8dAluYJAMDGdlKXDqrluG5g6A1W61ipbDM+9wRsBqbRpJMOXFJuB0tSEgXsriggBRg09VPnPAsMMF1FJqkbJKAYqdZk0upmTZD2N9GZUBd8owr/HYKwEO4kqjfazLoNwpqm1HZQI38C9BsPh1HwR7ISy4sRnZeq8qsGbLoPSYfq3GZFK+DYjPbBEqYPninUOYVWJBaUDK63aqjgA9cQmDVRc2oQcLvqFeoAbsdo1AENU1s88KVyjmjp9Vu6qedMMw+oyZ81woZlBX+P0K6Upjeaqa1dDZ1KSroGApEbgHCWqbkY2Hf2gfem1ffPavvme2zcn66X/9EUzn9udqhE+a9PdXiHJoJ+16S4QkxycIySp+5+yTFFACZr75b463ZdIR1xBt6zm8NQU0GqHMtirgdZDuGkxdH5ovy6B+0OTY+mR8LA7CB2AzdR2mzWH2qGw6026o8Y2xbDCJqnCPNIuUOoad10pzZ3ALIcq8BxKICm9NOfpxr3VaL6YllUo0vleh86vQ2de/70NnQu3MEOU5LQUNkHQE955p/QYRPd4YDSqB1OUbLYYjM+694xApred0xFFHEyoMF0kCaiN+yMzN6odbCTo11TZmxlAlYZLjWf5KHSUHeyrtjnWVgKHmW5Spwr/+YyIxtpDUvJkWpiz3hPXCgGeY2gSiZxRiVQVGUCpmEebQWbzdDyru6m9FCNJpnkBATXLz8HoEGQAQaAY91a8Dc5HuRbXqrJ56pwYQC5VrrXPEWd3QvlSYmY4vVVgffJM/0eQ9Us0o5WRZLaddCKygJpYRXOtIHpqjhEGP+Xr+t0csLqYrpMqakPhFuZ8NSGcDzUFt9qCfhZuWFUteoi2qqjbPq+qw/i9cIty5lb4GVbT8ZkZ6vsLL235PPA7lUAjM+dRZJ8j8RtvfL5qnGeeeuL8yumqif0mDdz5oRDspeYjZt5etD8Ez3whR7lB8JwUUpAWmzuY3pSqCc0bg1Akv7Drs3wZPQxpy8voVwpQwzzowVzwnNUgoOB3XlFhARVl0wiZBaL+hpA3Aqr6gkCyOygzB652ggb4+aUl01GpyvMi9wpC0l8JiabnlGUw/5/vgr0kgB+ev3r2/uHjx6dvrt3+n7+qhj89fc0t/fg3);lineShape=1;strokeColor=default;" vertex="1" parent="1">
          <mxGeometry x="294.25357879115745" y="229.1487704393012" width="33.47154117147544" height="23.470208384009897" as="geometry" />
        </mxCell>
        <mxCell id="EpJQi5AX8sjNgsQzGJPa-20" value="" style="shape=stencil(7VjJctswDP0aXzEkwfWcpv+RmTiNp2mccdLt7wvWoSpA0nOb6TE3W8ITsTxs3PHV8/3N034X3PPL6fh5//1w+3K/4w+7EA6P9/vT4UV+7fh6x1d3x9P+0+n49fH2/P/ppkv2X1+O3/oXfpxxoVGtHRXcz9cniXL4/eTjGfBweNQApwEcyCFAIW4KED0FBwCRigakMJ6sA+R7QQFyIg9U8oVCVICSyScAYCpeAWqkDFTyjqK2ockT3gZUCkXLB0rAScWGTeRbRPKsDWhMDPTJlKqVz0A+UYlWvgL5ON7O5BsImbxd6F9BAJjc4vsF+CdYRoh8rCDAlJqV9+D7nrzRXzgN7HVUo5UPgKHO5kzzVDKSb8nKvzJwQ945nQAe8lNqgrY3N2Jgr/BN25t4eGDdn+I+HWAuw6R1hcSjOsOEgw6cwJKwWQHkzABcGp3NyQgpIRay1mhy8rqLpEZp+anurad8oaRjXCmC79c8Xk/fb5SBAb1E6aBxhHW35cGByUNt5PU6oFIyNEqQpq1RNJW9kYeFesFsOZSBm+SImiwAUVUAJs4N54J8L0cLKEilYtuTAFA3kEAUE2qHydfS6HezI1ABblLhFzplFOspW2YANCf0ir4IBHSTtLBqAR5kdO9J5oQCu6DYYPgqAA/aiLjVZISEBpIpU2gWkJENy85/AVBXTkCtXMJke1uB01QnQlu4FadcWwYOZZAA2AKg0Y2SLvbdKlRo6mIgaWMk2AK4Bb0rokaxgIs5mscg/rdlINlZvhca5Nc4hsZ5KUOh5sUcU0cf3szRYgGMbHgDwGn2SYtgVJjCYPOsCSU0yzdbNpKDKknnDWaYidBL1dmW0gc6wO8SbOBkQ0kAkCVwplWPzro+zCwKGUOuxmzZneGwxMvhhOFwIhuPaSeyozjgUxl2gi4BjGuGKGB2tiTpgTLaThoyE6NVW7ZUnZ195oY7nmGREBFZ/Iads1n5951zLv++c/7PnXOKzozPAfinDG0neYYroZTArA8oaVzbrAOivcrKcXB266LJzNkpjMq9VYSaLkJ9qwQ+7UE213F+DN5bAMMiySO0FoYpqLPFGQ0uwmu/ADC6vxNamm4mgQNektdmsw0XmkG0u7wAIkiF7pNoAWhIkOK1AsD9yTS0rhLyUrX9SQAo3QRgpuYLFxLSoJKzADTT9stjXWF6j70A+Nfb5ksA+fHncvvu8PBwvhufv7eX4fLofJHO178A);lineShape=1;strokeColor=default;" vertex="1" parent="1">
          <mxGeometry x="347.88455446939406" y="228.6354892128992" width="11.365981887601526" height="21.398711758478484" as="geometry" />
        </mxCell>
        <mxCell id="EpJQi5AX8sjNgsQzGJPa-21" value="" style="shape=stencil(rVZdb9swDPw1fiX0SYnPWfs/AjRdjGZJkabd+u/LzJBrMfUVA/bmOHeWSN6dNMTNy377vBuCe7mcT0+73+PDZT/EH0MI43G/O48XfRri3RA3j6fz7uf59Hp8mH4/b6/I69Ov09v1C38mnqfir6Tg3qcXlSmnv2/uJ/xhPC7xkTh3hOIphXVCqBRKR8hMya8TUqbiOkJyxIDAiWK/QsiUZZ0giYQ7goM1C5MrBu8cwBcKweB9BHhtkRi8gIJFyJuCW4/X8KWvN5FjMGM319cI2gHUUKHab6iSBwsoPtYO73XFDDuUDcFTRoTS/p4JgTKQqcyiXBAqEkWmUC0hYdUFvqkByShS6rsqJBXgA4mYKcCpaYF9BTplJLvYVNzwEe8nUunxKlP0/URsbVORrDOxtY1H3+c20IWNEb6QZIPPqN7aXDsPuPluzQXsTD9RkirexFamhPQjdv8FC1SsyYQSNqVxvQra41y0DQrNE/+HwIViP+JYoMeStNyZe4pdHIM9C7jC8PXV2r6qT0GwsE0u7TOD00NdYKYmsIJEJVi8gJ5Gi18cD1+f+FSyXQCd354q24IrxPveNioTBg1V1/Yi0iDwoEGaIr2GNJjQ0XFzWGqwFrgfu3/XjLqCT32MVoEmcC2VZ3yBOfTPV8Bv8frwed98HA+H6bq6/N/eT/XVdLeNdx8=);lineShape=1;strokeColor=default;" vertex="1" parent="1">
          <mxGeometry x="348.95037887299225" y="240.17539278595075" width="10.423092124669893" height="5.7769272704039825" as="geometry" />
        </mxCell>
        <mxCell id="EpJQi5AX8sjNgsQzGJPa-22" value="" style="shape=stencil(lVbZbtswEPwavS6WXC6P5zT9jwBxaiGuHThujr/vqoJUL21PEMAPMjUj7jE75CB3r9uHl80Q+fV0PDxv3sfH03aQH0OM4367OY4nexrkfpC7p8Nx8+t4+LN/nP+/PEzI6en34W36wsfMS2SM6cef80IWyvpv5eeM3437M3xQkuQImkgBQQKJOEJKxPE2QQPl4gixUWi3CS2R+Bx4WbiOV6q5wwcB+NJnYBEifCVtPmPKGeAbKTt8pRYgvvn4g1BLmOB7FhpFvEPyFbUUQoEpp65nlQTtUChURzCdwCYrZV9UiaRoB4tYewJsc6TiqySmCwaEQOpziJkyCompBk+IxGB2jKCeEDLVCgnFSykEOM6Wg/jGZay9SKmr6lLm63ih2s9mQbNwYS9MjHqQL2e5oXgqRe7iV/R9GxQfj5kBkmnr4wkRjlrgNcGVUShhu8g+JFORopgqVe9flgSjHUq/g01Cwl3oq2pZox2+S1BZdL/qdFXi9WNHllNpbZyZGjBJq3o3Oqb1CMqae8ubGgOKpL3jnbX+egrUuN9AgIGZf3mzmPoI8GE5lVa8EgOpmnt5VZh5oISZoi9QtXjAuXwxCFUoArMzfDeaJnQgCV4md8WnxcBv1Ie9dRXzLljP5uufC/QW6fPNCs+b717Vvsbbw/974dO4283XyvP3/T3SluY7qNz/BQ==);lineShape=1;strokeColor=default;" vertex="1" parent="1">
          <mxGeometry x="361.7798656245204" y="231.09984402713155" width="8.5767261542456" height="2.502872951912991" as="geometry" />
        </mxCell>
        <mxCell id="EpJQi5AX8sjNgsQzGJPa-23" value="" style="shape=stencil(lVfLctswDPwaXTEEwec5Tf8jM3FqTV0747ht8veFqsoWQWs7ucnygiSwuwA1yMPb/ul1N3j3djmfvu9+j8+X/SBfBu/H4353Hi/6NMjjIA8vp/Pu2/n08/g8/359mpDT04/Tr2mF9zmuZgppivLuY34TyMW/L77O+MN4XOFzpum/Fb5SlG18ipRLg+dIqWwHxES+PdB0It4OCJmyNAESSSoIYOLQplzIgSOJUOUmIDEFkLTPVNsjZYFH8rpDe6QiFAENnCjmloYCedOq52QD/r25HxCIzQ6VBO3AVLuADMpal5Ks8BUUKVHq8RnwfCeBDITkFxGs8D5s4x2lYCuaPMI71+LzoqsNvBeLZ5Avk7QqrSoSB2RNbNaPVAHBkUKx+Aj4KtZmig9IcY4KdxugAOl6UaQCTqQm4K5EAVCmNpOOM9QqNMCKIi9ZbQWwyaHAhqq+zJ1MoSx85/xKCfPgux0qMEJeZHBt8e6q9Q1n9p2iABr84tsVHtJGTmxNC3RyzwEDJ2h2pqI6RaGTP4fXPtLmq9OAkYg8xVZ12cOCciFpKU4OM6Aj1VwT8tIO7jcXptI6RwJFsENw1mpKO7woOHtz0X4Q0PwI3Rhfrhr3WYi2gbllAt3HJ5uypgRUV4qVteoQuKY663zssqoayBYPOksNVOz6HqhOe2eyeDRvJlMlg0fzbxq/sSWYAlq/2nwZtq1Vl7pKDkp06pttnxA4DG43rBs+oQQ+eRf/P14fbhf/l/FwmL8b1v/bDwV9NX9kyOMf);lineShape=1;strokeColor=default;" vertex="1" parent="1">
          <mxGeometry x="364.58225800040975" y="230.82642560594093" width="4.734203946207052" height="17.35073673307511" as="geometry" />
        </mxCell>
        <mxCell id="EpJQi5AX8sjNgsQzGJPa-24" value="" style="shape=stencil(lVbLbttADPwaXQnucp/nNP2PAHFqo64dOG6b/H1pCKuYtDVBb7I8o11yho9JHt62T6+bKfLb+XT8ufm7ez5vJ/k2xbg7bDen3VmfJnmc5OHleNr8OB1/H57n369PF+Tl6dfxz+UL7zMvEscLKfLH/KIxtfnN9xm/3x2u8IGJqyHUSB0QIlMRQyiRIq8TJFHJhpA61b5OyIGqjUGESl0nlEadDSHom7JO6JWCDZopgJgV37PDM4igN6rs8D0BfCexOY2U0fc1gc2mlBqKt1PvVmTKAeOLTShTBAooodgLhUgNR+wUCAlL1saNF0KhBGynmtVkCXXUxn1CuQm6UM2QEN0JmQo6IQ8bLwQZl1wjiDN2IMEnBBtDo4KSlCla3TI1pLNGYEMWSjin0amGjacaWDyPylgTuXSHZxRvo1QcPmNfBycx9S/qwPU6YmSh7htLgXoFXuIbBG0d+IDmHBRxFej3XBUkbLl2U2eFGGncfAhKQBPnPgGcUDVJ1tWSYSVnIbYxZB4N7f5My6OfL7pVEnAlbeiu3+lcDqD0tdCzJfQAB7n4/vjpxfs3omadd+WtFUJo/oAKcqQBZI9HvmA/oy4dHNS+Vq6dmdo8kLN5bCkLXuDEYb9JqQAFDOWbymxaSkBh9q2l1eHCFXxy+ATLhsdKsOCFAsh/oGQN1JY9bMUP/7dpfo3Xh8+19mW3389b8fX/fg3WV/MKLY//AA==);lineShape=1;strokeColor=default;" vertex="1" parent="1">
          <mxGeometry x="359.43356716849553" y="246.83345305745684" width="15.300534966073494" height="4.353686826758495" as="geometry" />
        </mxCell>
        <mxCell id="EpJQi5AX8sjNgsQzGJPa-25" value="" style="shape=stencil(7Z3JklzHkUW/Btu0F3PEWt36D5oRFGBiEzQQ6pb+vsObzKzMezPPo1airGsHVIXXi8HDh+tDfCh/+uXTdz9//JCPX759/fLXj//z+ftvnz6U//iQ8+efPn38+vnb/teH8p8fyp9++PL141++fvnbT9//+v+fv4uR8a//+vLf8Rf+/ivdcUktiPLxj19/sI5L6//3kz//Ov7Hzz89jJ+P4+e8FBifLnk9jm+XNWn8LI/j86XX1+PzJX51N37My1g0vs3H8fXSCo2fj/Mfx6Xk1+PL5Xj8+71fZqLxOT2OLzj/cimP+9PTpeF8ytDxCcdX+fvHZcD5luvu3Y2vjcb3puMzzmdMHX/gfJbN54D9r5dj2HiYf7Xz2jcI+LleSrX9wflUGz8OGt9kPgn3Z4+vOp7Oa49vOn7ieLm/vV0SzKddT+c2fp2M/+23t/u4bxzcl3Ypct/3fQR50i7jkR/GwvPql/G4n1v+NJjPUH7Y86H7OC+HjL9JpBfj9bzWpY/X45ft/94fHD8e5eGWV8Q/6bhu9x1BggWkdOk2I+KITTAeVUCfl0oqJuka9p4OWkO6rMcphdLgL6jWaHjKQZCVoINaijXIlPpV87wiaEMJKlyETVCWEpAk2gT5sKvGazhsDXQ3g5eyTQku5ybodtsqcPcmqLZoPLjD5EvD+xYESQkSE2SzWMgiikU/iuCRrqt6RbBEx66rVnx50qI0T1mjyxfq1c54TlCuSvjezCH2rpf0yHw9XzX1K4KVdUqZvtCucv1u0Z0I+iWbKM50cF1tncG6OY1LFWWY+caNq2y/s2ZR8k0zB8dVLLwiWF3PIdE5LL1ArV1V2CsCEWR18sEtPbiaWFQutWlLZZ9l6S6VfWnpHDYjPO7StgtQaixl7214LOKlZwRklwRBVoLM55AeD27bTutk0UMJThZdjKCSJbBUeof5x1PqWQky79Jo/+QXpq+Bt3X5LgFBvvlD9+cANy5cfj9p0HGOEQQv8TmIvVRONNDeVrlA/eqn/F4hcCL5jDXqOrsPIgTaiSWw1HMIT4mQi8P0Q7/aBq8IVGUt3KW81a7oh4QaKNCRQwkKEZRLeVzDVihkVeaq1sw21guxd7tK0juHshK3NkMAtgaiKfXrhbyd9ERe2gTdWYMOrl8hoxtBQdkaV/7x4LZSPMDAil1KOqUFVzT89EdubewnbgJ1/DLafJtABNk+uMZrqGLCDdRxuT2xW/HGDXUt4z7QSU9zmg5EP7Z73LpOib6wDQX3dukCFXePM7rHJV/647a2G3c9JyjX+3UTleMKcjwnqFcE5ia9J8qlTaBq97bRrwhE8oV4BousNPUfUuJFbwK508h7xXCurX+Aufd4YYyE6qcY7pauJuPL8Y934UBjrFT1jA/EG/Z4AVmOq3H2cn90PHm5ccJFxhMM6wd8oIAsNyf7bjytt2nc4mYEvRpfdDwpzj2+6nxOGLrp/syT8cpv5A77em/A+8vzeuSfecqfj+O3P91BjW8CtVIbf6GogipsOG8C2aLaUKMFweMaWkWgcRN00ZkJYY+QpKI+OqLPsa3yhYlqfO+J2pDboadFdzOnCgds5uUQY4dd1U2wzKFf9AWztAvbLvVQz7MkDgodyhoR16MozKEnnTrKxyCQ+5mQW2NKEhhFLy/WLIFXFHh7fBHTn+NOhwYix9mCFU5GEGaPr2LcoW1XD1WAHRW+n1hH2Kka9twx7rrHi4DsaOIEJiXeIO9/Uqe8Mz8kC5Sj2RjjBYxE5HyPN/4hgyj2RwwctijigB8/kCpHytdlCQSWWBDd4Nl7MUEaZKoRVQ8ECjeBOLPtQDi1DJWN2zdFu24Y2zWO309NWBgnAf9pEY/CUzIIbDCWXy3HZOsoMkaq4RwnOqpmhV5OtnUTiPnbGCjcBIKDb5efYirVIh6NgfNNkMTlT7xLReNzjVG5TVDsC5nXIMkLm4Cgl00g/nVjaH4TDJsSoXKbQPy0WAPJ+aJyKXaJBGXVCH2cA/GShar2SWPKRr1u4h0BQWBPCUhUBoFsa2HtYDDeNvIokLQJJE+iH2j/1672fyQKES8NNTD2ncaTnmoK7ztNpvCW1U0IEoaf41wfTzpCVZR8UjSmUjlasAmWwNoFQbbtscid3pKKHP9wcbISkA/TDLnYBARrbwKxxEI8gxBohi3EF2hbzVmNNVDSkKELoQBoDU1vXGWHIdTHoQQUSAqCrARkID4hqKiBYg1TCfCkm0qNuOXErU1dw3r7yUteki+cZG+Vq+1yI1jM3tlw8H0HmUCld7/aBs8JLPGmLTRDXQg0TslqLu4L+npxH2SXJsLaEZIX9q4YXtgEfkUHM980IYCSrxlqkDGvrHU1dLfZuJhAYiqbYNKiu+b21YSBpE0g+RtBQJKvWypDRiBjEzyRrcStloNyJiq75vdFJJanJDcuLFlijX7d9Xsdx9sqNl9YgfyFYWKm86L1iuarpHopjC0tmfyHVnSXIpBErJEV4B4T/elmAM7s19DSK3tJEJZ18yheWWSiH9ZgM7QphJsOhvWrKeo12Vq3OMCqKAXCDpVtWugf11smz42gsKW7NDluMDS2NYqI7wi6nxh9wkwVPY64EOI1DUSX3iLmv9On6YZ/Vs4piSinXOqEgdJIM35kjTKwUmUTyDmUgqzRbwbYHV5EXlMvuoZSObk8W0xjIC91C/bWhEmK/Ra2vDPJSFF3K0Cpiw/OKiw2a1AgZxNMM2cIOo38cPsC2Q6R4i6u4oGBnD5MjQ7eJcubfJNUzwmW7lLNqLMi1cHMGXKCInPBzBnCHkcyY6NgLsPIGr16E+ivCJSXJkJYm8A9cDIFgsBCdoSqxZTM+KY4gq+hMbC+CQRlbgP17sgGzgyUS/vgFMLiDNmR1OjbBHSBnDU2AcEOkcic7At0cMmQcoZORlLzvnH20L4PitAOjADFBRpKQHo6CCxPjIDvYbUy4bQQL1lG4BaVhU9a8vW25KPyqbjTImY41224QsmIqo2iCU1vAeHnBFV5qXBRx7DcjMi+oF3qls/NYfhtsGnkaCJetAlUerO9NJ4plETbujSh6URljaV2a12IY89keNFCI3FmhXQr1w7PosV+e9EdFr0JljEfqd1ZjTUmnsMmkCjkNuFwDWZ7v2XwvSIQNCcvNH+CoCgBlaQGgWQ3sNrdBDkrAQUgYtGHEhC3TkOZI3zMBycocx7osk9DmTOr3ekZfgOhxGkJr5nzJmfTvMnMKmsaaBxZV3QOzUouJhrrm6DYSZ9MSQDXYG866X5F6e4uEBlYgUrIjZuIMs9n8A/phyAQtJ9F5exmVd7qN1/tkoRpGrsDm0AjqQNd/Fm1MKWtM7mkSeyMlMcVXUpAQN+00vd2y8h4KZemfYHlkibtLmYN0w+NKyimJRU2ruGbhgkENEJrKJbqP5lbiyadtFuN+EsCs1sJRIg1mEuDYsaD7P3s4MTm224Z2Uv7PkyLmVMbjjkscrQwJjKtsqtWBO+XWzMHxtdW1TqTUvHGLQsPbMVOi15DczUzNzdZUyVf5vKdtVRlpYEZT3tKsug0sX/BsjBNTug/LMtMzxWF8TKHI5ogEEFWtyxKJGgNBlOUgdn+K1sAghNUl1XjbLeMcmYD5ZYvDEwIX81yF07WYBUUlTNOl0eDuW9DrKEpAfKSIYlbCJAgi209lADvg6W1BxrKB1fMyyKoZRNkw1tJAy3L5TlJp16WwBSRHl7Dk5MGW2NZWntlDbTMBwpuJV6qWlBdOel8eVpLR5tvWYFN7WjdL8t4qh1dmmUleRFAY8mnIfCBwa8nV3Sgnn56pylLZVUtyQtEl1lDgZCFCX3LDN26EPJaViIRV5S3VaGWdSaXst1p1NP/NIF1rKkJq2Y3gRiJWwPhtmbtxVI4zcuV4nZeT7ZVeClK5phbNeGbTelta4iYSdyRYE01ElPFaNmy8s79BW6tcqga3YugMM2ybhWZI3h7EWrOdBYbQzOYImx5oqgFwuJMgSfmDIf81nH1Ve/lPbDrnE9ymREk6yq+G+On2+NoFnVBv+zdA/+N4N0D/7fwwKX+tHF1/qwGYRXG7Zpxa8IS2oASxRQYzN7NLKxb8v7LKYkHvhg0tu6EUT95AkuLqOQw/v9btF9U1jva/2+C9gssXTjpxLVoYF6sdsUSiGgw85KC9wzOhMoyYIPs0Jm13LhxW7aZTO0WjvsvrU+IPHZKRZgq+dpJkH1YYHSdBaizea+YmtMtfFxQeg/Loa3comA09fELAxvDDKx6IKQ7rHlwrIFzFzSBaWAV97CEvhNe2gSqpysm3b4nMN1MuPcEJiP4IyYwmRlKWeuxS3JwmbfVUqRC8tFJH2ZVDjR/xqFGYqTmAGv0pUkn+wvkP0RPD1sDCbKol866S8RL3epEGhce9qaxqcb9CrphXsEanF2tNdps3fes/cMa99TpSRV75UaI0b3Fc275C6KBCveM3WtQqCWjbI0McQmXsQPezRfNk3fJUIf9BZySAd8lozvgXyjc7W6vQQNyE9Wu59FHdjUfXDYcG8sCrQVsK1wxOqwn4EmlokHrvaFxsq+8SI23ZM7nBN6iZWJpY50qBCa3OX+Tc1eClbi+p6sWXQ2bX1erI1xsa+wvyJ1e/azOXL+Q0NCtS6HHcHKotDFpjPDNGn9OUKyJ/zwruXbmI8jLy5XbSaVis9YojEq/V4zeCN4rRp3gj1cxqufAzxoFt4p1zw0FmwVdWuV6/2r+A0dSwyS0jq7kP7RkT3nUsxJT/QJX3zR7TaFzWGcTaHNTTrwPDNoM3UzcasWWJ/1gWjZeGphH34pZ95Ul33sPj98jZt57ePxG8C/v4SEvfkVVIN8HZQ2OvIaha0VN2MjHXqpp3MIsSrSFYGCO4VtC1J0gIy1auwaOOnu7exOzCWMqm4oeT00JyCILnfl4Dv2kT1Ux2cqx3Vqe6Dhyj9+bpF0J3pukPSH4ozVJK2Y6cNuFTeAPC6DUsIYCka9BBFYPHSYct1YUXnpDL58TWGOHUbifpOVUDX77oxjqsAnILYvka3kFrHJD+6HQ4zhQGBdLqeqs496y8e7tVp6SYALhP1Bn6GHg5sEd56eWBpeDm/JPBaRy4p7wy3ran2ig9x7G7z2MH8eLOfwv7mGcNJ9oIsywx2u+KdcC16RNv1NnayRZHW1hNDNZSxoOaVR7UrHyW2dlPSnCoNydMq07y0SnJ0SdWbbYGbprUL2z2iz+6mzCcszoHGRdlQnzLcXMeb4LkVfmLyTSLmUL8VW8DSVbMUzDdKJNoM9+NX7Lpii6n/mhvWJQSTp9FELPgfXy+zMt78+0PI7/oz3Tou8Pcv94h51ZqjS9wvHQML+bpC37Fsteq+o4eciiWOJx4UreaMhhRUsnYki7SnH7x2L1nb0wQbJX3Sc/R3XYW8pcQRE5vRIzZOmezaEYFVl122aHEZD16w/ADY4k5aqL7lx4lS2XoXeM0m8CcR07xwyzYy/MS9mBDrZF4l09AQkyJgO9PZp65wkia/hzhQe6XcEaIjTYtHhzs+7xVDrpYQhVR72ch9q1nRVJtojevqKkyYO9hWDww5TWRPnkLeVsr0ENDhdkS+UcnPuZLYVwFF7DodZ/rAFOOp5RzbpLdA5pauLxyWucyXLd3prtviLQWNVCLywILFZFwngTaJ/Pzo/+Tu1WUbj05f155yvB+/POfkX/aM87+8PFefBztoemuZQDgfDoQiJpkCfGiSFngUXxFzTofqLYD6sH7Rj3jG219ApSimmpJbCNRMoeiisqMHXhCzQNPzsRZMOaincMMibLgBoNDy6ZgxVFGMDeydVuwlSdZNVpnVt0pKI+Ym+o2JO1vOxc/5b8me0DEy23EyZu2ajoh24CwdAGZ2ampEDAJiCkIVlgaHR0B5K9gzH4peOUDG1nODlZWH90fhQ+ad7kYIA+GYA+OuaUJENLB/cq3QTVFo0HZylT40TtHhqwHg0xn02gKHrFHNwgkF3KfA6HSo3ORX+bQCyyzl1pN0EyBxw7blhP/pOGTKp0R0V7bKodPSYXXVkOMdeNGcI9C6fqadnl5Pesq+7PPDhUZRHVk1CbFmkO7uFYtLn5FvLEo+bX95PniBVTCrSdxw8dT9e4aPlAP3mFUXHGPZ74oWiKVD/4FV9N6u1ssVnlZD/4hV0FkzoDydUkxIFeoXW+iP3B+ShAd3DoUq3Bzvam9QnrfH8trrDHU4W8pYRGvRXF/ex1vYFZS8XsiQPnY4GaE/ujaEHCWGjgZHt+vKDDnNWWmFyom9QWXwfWrSdFj6IHDszHqhIX55oeamKugvxvWTjxVg+crz1teDperI7FKfnmMq6MOTvmk66MFvKh8mRlDNAemsUaDbDARLE2Tm8dtn7n3+eMOp8/B458fw702c/H73/8/N23T7/+54fPP/74y7evX/768f73P3z5+vEvX7/87afvbz/65dN3P3/c//tf);lineShape=1;strokeColor=default;" vertex="1" parent="1">
          <mxGeometry x="388.92944283674035" y="217.70521166495894" width="83.78020979673144" height="30.395782534595302" as="geometry" />
        </mxCell>
        <mxCell id="EpJQi5AX8sjNgsQzGJPa-26" value="" style="shape=stencil(lVbLcsIwDPyaXDW2JL/OtP0PZoCSKQWG0tffV2nGFJkgys2YXcuSVht3NHtbz/fLDt3b8bB7WX72i+O6o4cOsd+ul4f+KKuOHjuarXaH5fNh975djL/38wE5rF53H8MJXyMvFihpYKH7HnccOPe78TTiN/32DJ8KBI1HQAOfM3iNz/WASXxhyFHhfQYOBiFDCYpADlK5TvDulGFlMAN5I0SC4hUhJAhGiIKQiyJImZGNKgVgXaWUwRmEFIFJl5XA5euEGCH5lpCNpCVFYk1wtZWTBJYUs84BIRg5MAE1VfL1ktMEB6gJnCHjPQQKgGReibU0RN5k5VDaCN5DuKusVLVytW/YzCca4zAIgxt8Mc4flKe7FsEZJb2UtpeJNUp6OTwSgQ2lTswnFUiWZ1xYQKDaln+aTAwQjSQGF9OEFCDcsElNyL7GnO6z+HBDYHA3COkugoeilSG9ZEuq2FqG9NIcN6xKOGnD2V8TwrYR0kvLlWRaSMu12N4t6my0kWWiDPmJ72q8TFQ0Bk5stzExNg3AATVa9TXiFXw7DMk0emzvjyebnZZFW1B/4/MpqtAB2hbL4u+1seo3m/Gxcv5/+zqRrfFlQ48/);lineShape=1;strokeColor=default;" vertex="1" parent="1">
          <mxGeometry x="427.74144379086385" y="224.31768132388186" width="1.8480732640806499" height="1.3225254817426693" as="geometry" />
        </mxCell>
        <mxCell id="EpJQi5AX8sjNgsQzGJPa-27" value="" style="shape=stencil(lVbZUsMwDPyavGpsy4f8zPEfzFBohtIypVx/j0JwQG67DG9pqnW00mrlgS+e1zdPqyG458N+97B6G28P64EvhxDG7Xq1Hw/6NPDVwBd3u/3qfr972d7Ov59upsjp6XH3Op3wPuMKxTyBgvuYXySm5L7eXM/xm3H7Kz5U8tEAYqQSzgNipVINgAO5eB4g0s5rAE8efKB6isXEO3KAQY0U+vNDAvGZsj1fCTOIF0o23mtCAgD1iHCmAiqkgGpLqik5DwFsU2KtKeJQqHoLKMQZABKVrki4y5XJd4BIGVXJEVvSMUHSUqj4PqXvup0GJIq2DywkSKlMJfXSroCDBJKucZkc6IMCuj54geLTlIQtwJOA6VHSyQI0IzANWlWxnAOeNkfJ+oUjj6TKxNzFf4/TOeFVZ3tAjHQnTTQtXrC7VIpdQWOTyUmAd4v9LBXymELtDUZzEuwwUSzn1LI8Z2FdE6KjDEZBPdIdTSeSxb8Buma6tVBS6/xJAIe+rKJ1A0pS140WMBktknZbAz++jTdJbh66fEDafJ9eheRt27QvEcQHSlaqVe0AlEj3WCdtgbJQR7WE1T0CmJ0jYZdCGSwFnXR7tygBup1rbrtYUYbn+2a2S7x6HRg07q0u6ZoDfFO/cZJuHNCv/96l/o7Xh5+L29242cz3vt//9xc9fTVfEvnqEw==);lineShape=1;strokeColor=default;" vertex="1" parent="1">
          <mxGeometry x="403.1872732976292" y="230.16396351677565" width="5.497041858154638" height="2.09610360413982" as="geometry" />
        </mxCell>
        <mxCell id="EpJQi5AX8sjNgsQzGJPa-28" value="" style="shape=stencil(lVbLctswDPwaXXdAgM9zmv5HZuLUmrp2xnHb5O8LVVVjUBYmuck0lsRisSAHuXvZPzzvBqaXy/n0ffd7fLzsB/kyMI/H/e48XvRrkPtB7p5O59238+nn8XH+/fwwRU5fP06/ph1eZ1wVsEwoprd/Kwk5/135OgMO4/EKwIRkAa1B2jYgRNQVIPE2oCEGG59Ash2v+yfLIPsJIdv9S0Si7XhaTl/iMy07bMRzM/ExI1SnohCbvzCKs38GkYl/Z3SbL6FmA1BJKDmA3CswbeEophSoWgCDvSYq4GIBFexwkIBoi8TV5SARwZKOhOKkJAnBypwimtNGegLbE3JbWG1xyJ3VGMFpPK1SbzVektzSQawOrUK81sgo3ClNS3vdRgQEK0QrIKc3Mjha0g3ZdUPq3FlRHKEJ0qmQII4K1LsnEZpnBkRbUsluW8ReZF1pTt81BFsf1SQ49VTvpk6ysKj+CYDDYH0l+C1R1cyd+xfNbzMO/bTQCjlN2iKizUfHUXEk1o7srKzTxZvweiF1I16tlx0KVy753xaKcHK6gYjFbaR1Uqm6TlvTzmUZgh8srN6E1UtppVz1h2pdzfmqZzocPv0c+QBAP95fP0/j4TA/nq7/719LujS/tOT+Dw==);lineShape=1;strokeColor=default;" vertex="1" parent="1">
          <mxGeometry x="389.0303031664456" y="230.76374315821738" width="3.2364436860272128" height="1.2761897638597475" as="geometry" />
        </mxCell>
        <mxCell id="EpJQi5AX8sjNgsQzGJPa-29" value="" style="shape=stencil(7VrLchs5DPwaXVl8gY9zkv2PVMVZq9ZrpxxvHn+/zZUpDYFRa33LITdbYosEATQamDmkd1/vP365O0T/9eX56a+778dPL/eH9P4Q4/Hx/u75+IK/DunDIb37/PR89+fz0z+Pn07/f/k4Vo6//n76Nn7hxwmXqwttoKL/+fpJdyn998kfJ8DD8XELiC6HFdBcJoAkLkQDyNcBsbtezZEYIDnfF4CEuecuIIhrCpBc9QTgXfAroLharwPO357Xdyd0vbKgBFc6OVBwcb3UklxiFhSXxQAKv9TVhBKdkCPBbW0NjOLnNe8HRjZeuBFJ1YnygrjMdqiupBUQXSVGI1brmg3iXRECSE6yjlVP/ABAKCtAaCTBhqYSNLlMAPi9oBLUu0SyQbKL65FwDUKMLgCsR4LvIwHUpHeIkRrdEDlr8CF+CwOY8EaGZOKH7l1cQ6POM+6vjzoyErWgZ+dXk3Ee9vtmvXeVhDbWp6DWC//9qtcn4rIu06OX9YGdR3SY+skf++uLE7Oe+atae+n65rxZz+6nuaLvP7DzI+LNfRLuwnpFRfAXX9+9Ws+YK/jzfVwCjl4QNohqPcthOMyvDkNGNpowqmSGRGkIKVzWGwVJsBoIkshr/QC5JnIk0JDyAbgyEkApk2m3ZZ8xI4Jm3aFU5wkA3KuMroXGBepRWt3Q8nTMfjlo+kigvtcCsQ+os+KdAZmKo6HO1kgayUocZ40GoJNkgy6Iqx8GfRBFCKnS17Lc0wz3a55W9DVuieRb6bNEnv0gVB5V5O/qh0v8XgMkVaFk6p/9IzUD8NOqfYBMSt9GKzM6uL6SJKQAqwpwXFc7ROeJ46Tq8EZKMV2LHfzqB3zCChts8CanhYdGVpoQ+UAAoBmVceguPAEgNrMRkYFxd9bFE1neGRnLLB7/U6Yiv5rpwQJxHDK4dg1gJICCm6MGVFYR22ShjTZnXd4o6QZAa66hSgD6DVGiAIGrpOKi6VTpLYk50g0dCZ4TAyB0jzqtu7AwpfE1gFKq45ZYaATdIw0/sGg938nW0xxQbCxxcaLUGwCs9exmxDDygevtYACe+UFcUhl3I6fPtLXdgQHQPhujGbciH1QPAEBhNjQtHQDonASK6bdvsIbSGgBQT9sRQKDyB9eqGoGRoiy83wqodWbwpqAwT9ewI0MZkRVTH1AUqRJAR79SJcpkJH4YekkNexIdcEGK6AlX4Xop6fqAnyis7Mo8wEYvsTljNUO3dnMH1VNC8zHmq3GO2DaqsnEJp6YS4BGmjCGn6npLo4gxRSZahm46x2vy3qstOh1N5Kw1HJKw8ZGymk3AajZ1y0nTd+u0UGfRrWJLtJ0e9WNNCERLZDrUaulCuyYkmJaVhVIfYkOUhsuz1l8LV8WV6I+Z+G5Bz1jQgTMmGy37ukOI9EgIf5UQhTbgv6div6div/ZUzIwBAn3mMdokNYLiylb047nKx85BV01kJDO4mQgNlQ/RmtapkVf+0jXRJZ40l0dlZwAfNY52QmntQAE5aS9nrsBS13kwxmqsfgRXTc/D+uds5I5EKhVy0mUZ9cOzp2cIbaWEO23DUC3augPURiE7RNFsBF3ZSPYE0WO6ItToqqcSWM9qZpxstVGpnVhg2AJVWkizEEz/36jBWc/PIBtuPOZVQ3dEBWvOw14HxghsTPEVIZV5yP2oMCUW4uo1TvZt9vpZeBauvUQPDXEk9qhavGn/OYeNCUfRADZPBkDPzyq1AW7S84JG2//h16wBTBoNgNcA9tRWzPAWAOY4MXOb0QqwHfzOixss+ACIbxoa4ms786APw5sWeAPAdqimNHTaRb79BZrbAPxxeV/n8/Hh4fS6z/Z7/X4PPjq9G5Q+/As=);lineShape=1;strokeColor=default;" vertex="1" parent="1">
          <mxGeometry x="365.53814933830574" y="259.5969964230683" width="14.060206782743425" height="41.34092423448002" as="geometry" />
        </mxCell>
        <mxCell id="EpJQi5AX8sjNgsQzGJPa-30" value="" style="shape=stencil(7VlJchsxDHyNriiCC0ieneQfrrIcq+JYLtnZfh9MZDJDUNOOj6nyTUtjhtgajZlduHq6u37c77x7ej4dv+x/HG6e73bhw877w8Pd/nR41k+78HEXrm6Pp/3n0/Hbw835++P1glw+fT1+X67w82zHTFIWK+9+nX8JhWr488uns8H94WFlUMmP+Bioyja+UE4DPjlKDuFf7t7xlUpE50ky4DNTAOdhR9EPBoWpFmCg1xs9rgw9YE+ujgaZQoIGIVuDjO/gzR0KeRAk9aFOBhkbRON0Ja4wrLlagwTyUFvVrPAF1p2LFo/SVsiNDrBz5EBQM/F8A4AX8tniJW/jE6Vg8QE4HKmOjaMpq4zwKVv8S6Vv4CPbokP+xlZhHe9fO894/RKgv9Ky0xtZiQJ0zURESSiC67Py1Big6IlBhXpnqUWLKiKDQjKmmIUyqNGgf49cpH0PSihmimOMfOuKyyWnPTvW0CstwJZ8PQlIQYnkTE1DfA3kxohyaVV+2aA07u8HqrDoVk3es+zwPBPLdIlbZ192utjGFEcFZDlnO2JF8wKckEBiykLgkWKZes1TAoURgnW6ZNw8TNmwRWx8uTUPLB1FCnCO2ymreEBfOvBkOhCk9zDGVItRwEATmzTFI4dlOr+HKkHLzsSHoc4R25qK9yBj2VJLdXDiqx4Qi4+gSOt0HtcIeauCmK0BFGrKzsUaIHZRgnfehohBCamBIfjay3zLIBunPfYh2MZcKBDdwU9h1Usg3aUTwMiETspbjWmFV2xqciPReW5kNBRIJqbwsDEtPlAB1xcqYvFYV8RJt6Aki52xtYd4A5/N9Rnqrk60q7JG46NQqBaPF6i34YOzFaRjncGBYrQRzbVp2y0ZYhoz9/lzOUTekrto1pHPvknv1daIiqLUyUCjBLK2iN0xrBGTy1I1Yx0FhuKriFWPqtbQRMil6eOupjzUpzLpU2n0dBnvGld1F5qEvpxnbmq3xwhvCN6qu4pVS2p6fSUfGRzIz3q5trF72UBTNO0IBRG8WKmmW0hFuijYHOS+OW8RfBp9WPYodAffnh2sF7X3xw/vjx/+88cPwVl8QlOqbQNrbQe6QHtkbGSdKUi2sJVFujwj8nJWOqYKn5tOe6wOKJQvZ5tYmQvFJ9h6CziewQ4bxSOdGVu/drzAhkxWIygeqZBkKUWnQ4WyyzSw4qGksOvKgkfzfopnP+EWY5lRow7DBcrZaakGaINltk+6NWWQRNnugGqQ0fTjptS7QcFPut/6tuEfDPTD35cbt4f7+/O7kfX/9mWI/nR+kRI+/gY=);lineShape=1;strokeColor=default;" vertex="1" parent="1">
          <mxGeometry x="392.3454186087059" y="261.9508716839788" width="10.23041019615307" height="18.455427562476274" as="geometry" />
        </mxCell>
        <mxCell id="EpJQi5AX8sjNgsQzGJPa-31" value="" style="shape=stencil(7Vvbbh03DPwavwq6UtJzmv5HgDi1UTcOHPf29x3V0Ho1OmeSAn1oAb85jmZXIofkkFrfpHdf7z58ub2J/uvz0+PPt7/ff3y+u0k/3MR4//nu9un+GT/dpPc36d2nx6fbn54ef/388eXfXz6MleOnXx5/G0/44wWXvIt+oKL/8+U3Nbpof//mxxfAw/3nEyCaS3UFBBebAOB5mQElXweE6krkLZUiANFVAmTXBKA5ox01F9L19cW11UYtuiRslNmmzVwX65Pr6/ruXa3X15trfV2fXejCQMn59cAdv/ECYHxi7MhH4WTQKK1HLi4Jk+LMvq0+6JNYlwHFhbACknTa8JotAAOxhJUAKKuVLLkS5Bka8c47U2eIzsoKMBfVlqILK6AF19WWECkb9aoINhyaqRGcV2fofIbWXBVnSGke8QBklwX5Up0bOFmpiS1lzwCzGVGXAdHldUsFZhBcytn5FTAeod5QeEtItFkEEAB1jQeElBdpNRsHUDgS7VUAWWnS99qZ+8oMsFfbqBut92o/hW0aXFYHRkJZE4B3XbGizO2+rldVZNgn0vpv2DMXWu/18zvvX+XgXGeNOa0XcYb1xCDvkvJv49yikxfW55UPwQX9fOP1puyDNLL6C3xWz6+sK+BwkRphf7Jnd1mdN3NVRlXsiqDJpZXQiDBVP5BDwuoxpD5p0sAxP4ysAH6a5LBRl2UZAAp6a64r1sVZhE/Juuq0QjRCSSvKD5XjrKHuKrUGXhoDFLOR/KttWxJvsM2sFTVLCDwr879PSkGRD1ZvlKzjFH0XAUNTr2/AqUykF2hqSke5uyjYCrnlVz/Alaog1K0sI0IUl4Y+I3qbVGyWWYsM34ucDSNSDSkmk5JtEYdHFEFvO4rMKYCSyBp4w96ANeEHHJr7KZMNmHU2K95giktxSsbTGYKgdy18hmFoQe+69RfwgyQfihsB/FS61wCdFBuiXHi6buUW2VY1bQBkz4Ckz1AoHrz2Q3UtM0DRG21sXOmdoNYFNQAwY0BSVuosGgAIytN9pt4zQPXmfj7vBFD0BoB0HgBFOA7J3W8ApSQBSJsfFPla4E4S1AgaQGcAQLEVh6bWMx9F7NobGqVKdDAKkJit5WioLwO2hqQ02dy2znoJ4kQp9F6n2DkBmoiH3thxAHSRvXufkvxIZBDRwnEAlMSALooiAFzYg2zQg/fbnqKsWeMVq13HHEN4rnfWDqgxqmYNM1GBKHI8NBzRGaDa4eHqygAlybpx9wlAUtww5gYOraYMfZ8n5anfrwHK5gclvvs+gEKMiooCAA0+QSbVceDQgQBesg8A6wyQh66TOecYVWZtMzOeAYqtx7jpvCUdDzSxHofWQU2dNMya9Rv6phIl+QAglZjk1B0A9kOWrSIANJAd9Fbka5xcRwDpEKUGYoTovwlodbNS0dohzTH4yaxqxjLUyUY+Nf0cKpEaiKwBNvPcuc1SGu5Nh77p0P+PDg2bDjWZyACg24Cic2vz25ivyjkfuMQdeJZ+QPdK9K56/IP+2G/jH5UqrfJ9w9DvauwQuQK92u3yCKtPqx9balJLw4h8jZvkKBENOlkJp2oiHvAGGvSZzktoF0hgIbcmNf4Js4M5yKe3BCJQnc5xlslrYzjOS23WpGvUIPIB4BVbN803Ylqx1VhgjUG1fgM5rnh56Jq3EK1yEo9wySSwspyU2zbSHcNF5enIbRYCSN2/ga19u49W49AxOFxjujVZH9BvNwJUmYyRSRmQZFEc9WbNraNyC0+nXWB1KdbT8byT/FF36uMNlO61lUa4rOIkmcxLryVwAmKRYh1mjSsgFKmX8haidV48XV7/dg/6dg+6rv9v3YNuaUJ/F4P1PPiQEyus3z80kJ8yNNaEUSfr4QG6B/XyCmRc/VINTPr7jWP2fyQ6019XJG6qIAXkbfFBsiOrdClekAfj9h2NaqpSYF70LAMhGo8au76ajZE/vOvHVymXZ5Od70F7lAUntO0zsTrNcBlQuX6MJkj4AW9gXZtlOcAZyuZpVZYRvjyPTZLe48u1rYNRZo1tFoDvHIzHPofU53HSNwCJDy3P0LjowKyqMQT5wtbBSLOmCwJM9XlwHN2pIx6UPAqZI+51LH15YMV+O83iLycBvo7GC1RqDZzGEG+q9G83Ad3LYPBbF3lomcsphgcStcvbD9s+Z8yyVIWwJUkvB9zBtllvla350FrU/JtsdmLl6mlFfqSANEy0w5bUTCVtQxirsg9OYbvKqFIxpLiFf5OSBADeUpOaBwCjAbcehqW4zav1zdvY0goANdRX4ile+A79G4cmagCgWsIUNnoH2dYCQOPnqqVb8mwlAJRW/cdf638HAD+8/nHAp/uHh5e/LTj/P/8xAX718ocI6f1f);lineShape=1;strokeColor=default;" vertex="1" parent="1">
          <mxGeometry x="404.5690765606662" y="258.58929792854326" width="24.109559715138232" height="18.915426154630637" as="geometry" />
        </mxCell>
        <mxCell id="EpJQi5AX8sjNgsQzGJPa-32" value="" style="shape=stencil(lVbLbhsxDPyavRIUqec5Tf8jQJzaqGsHjtM2fx9uF9qYaneK3PYxI4qaIalJ7172D8+7Sfjlejl/3/06PF73k36ZRA6n/e5yuNrTpPeT3j2dL7tvl/Pr6XF5f36YkfPTj/PPeYXfC0+p8kwSfls+5EhB/3z5uuCPh9MNPiTS4ghJKIVtggqJOkJkKrxNSEoxOIIUqiBCi5T8lpgU4TNxHPBBAL5QTA4fKIMEWqXs8RHjGyVx+EqlQXzLfj9KJWKCTzhUakBkI0RPmH2CCJWSF9k0ayjnQup9p4xzSFSrJ0iXccsV0Z+qmmwFEJTYH6s0yhkQwqiD5O71LYL4LZmTCiJwl2kVLlPGEYKPEALFCgnF55BxrUm35nqqFJDOsf/+qLWSoMwpDXjGPuJxfejsSjLYqBf3ViWI7y2lL7CFrx4fsE0D85hBsBBIgtWVq4usxSKf1rF0TGRYCaWX4k0lNBQhj0PBag22sM8SUupTafWpGQmNnThGKLYEUM5a4hChNmjtTNHLYMIoSmGcgzfS/zsFam0MkIBXhaqvfROegcxhLGUrvgysyuMUsWYQwf5tCnt8rXD/dhrDGIx9SGzhfeGUBmcO/1XKli+wEPeRt+JtgCAH9dNbLVpJQS+S8ZqQU2/GG3743FXt/3h7+LgXPh2Ox+Vaeft/vEfap+UOqvfv);lineShape=1;strokeColor=default;" vertex="1" parent="1">
          <mxGeometry x="408.75723686061895" y="262.44010207024576" width="8.535198694189132" height="2.414082051676156" as="geometry" />
        </mxCell>
        <mxCell id="EpJQi5AX8sjNgsQzGJPa-33" value="" style="shape=stencil(7ZzZjua2EYWfpm8JcSevHec9DHicaWQyY4zHWd4+xbSllk79+hoIAiQx+q491vlFsrZTC/WUv/vl4w8/f3hK2y/fvn7584e/Pf/47eNT/sNTSs+fP374+vzN/nrK3z/l73768vXDn75++fXzjy///fMP68n111++/HX9wt9fcDGGLS9U2v7x8i8phdn/9S9/fAF8ev58BdR+AcQZYrkHjFDq9QUxjO3++RpGuj5fQ2/3z+fQ4uX5vIUx7p9PIV9/P7dQYP0pbNvl+WIngL/fxvX5FjL8fgnxup66hZTvn2/u+YznM/bdHc/3kCoIeAvtCmi2IBBYTKFcd9xyqATIYV630EbY4EhjCWVeAP34iTvAdlW6sYVCgBSGAEwr2AzSVe2mqQWIbaqazopqZCdyNbNpgoRDbXpEcdt2zb2xs61dX9BDhSMqYcoG8m5Jd3Z8fX501NMe4nU94/A0NwcqAugF12MS66KmbTfVOyUa1xXVEcYEgEnouiQz5QymZp6wXw2hmPcAmZkQmjivioZgajGuamHescAelt5JPGhhMiAJoIYMckvulJZqkUMdoWUF9IgAEZwB0GXPsE0HoE1PDSJrSSTpuTuH0yltFHVm6JsCCr9hFAVMBohBm6QrHasB5A1ms28AogJQcNPFftMu8BnLqw4FoBy6usmcQiVAdfSi85IsGl8dt9n0IHtIIQlhGAyw0CMRvbCJbvvvnSM6KV8M+ap8zRwPvSHtfu4A9N3b3p3SEGc8WflMma823Td090tz3BvIGZtjbC4+TFhSzhqxjPdE8N7mq+P1DfVY5GNAC10knUMC1chdY5zp0qQljZCv6l0qBkUDlKYA3LR576tqlCOI3QFENQyAmz7yjxNgY4BEoAUAe8jOzRgg8htmVgDRybI92AMJzgBioiYHSmMMoJtuSLoXoCmAfOsCyB76W0sSr2HaSrrk91DrTvQfA8xVXt29eT6KoiXvcj0BiAm8HuJpSeT51plcVaNGjKLFG1Ddqe9jwFTPZ+pIIcsA+brpXHYWeAeIEtgPhb87JaWhkU+pqhNYRJd0ybyQnFLEfMnsS/ITkwwFxWWQ11OqFvV4D1L5qG3nN3eqUZ3yUYxbchgKoMy7HmdyikCUlBmzkOqHqXcmgHFISZo4B6ree2c8peZs2qIekROLypvjfLSkdvjqE6tsVJJpanHGMykCtaElEyMTGxyrAaajoVTlWoCqx0raaoAhIWtg/aC5wp7ZA2VZBhB3X99ckvKlgvHBSOd0zBhVwzRHtNX8CEm6uz1U3oMpQlJAYV1qUwFEEg2Qp26aXKUBYlYAFcdaVTZTjyTnDtCnAlCXDCBvSLvsbwEih4hVVtu01NPMHijhMIAsySwOT6krSbSMgvIHU2+f4mcCTE0tLbPrsOke92hwFAX7XiV4DHCuMo5dux4DinI+yx1p073uXP5UdSBHZoApxxrRpnvbS2inAj+RxO5SGgNQwXs4Gpq5ZzKSFhFWiQpOaRz1qlN9ifKHUV1tZuOuQFeiGxu2Zcah/SdAAjmMo9ZzALggNYa6ynj4kTtAzgog6mAAaW1EVo3hwq4BKH8Yjs2YxW0k6akJuAE6ycElr/HQ31uAnBKnA2tJonwbkpNx/N4JgLo01Rmb16BMcQzNsladmgBHL+NEsChpWvZwFVweSBKH61eUhGTd9qDF/owxbhqXF2a87RztMSDtZcCTI6MyxTSyI3XvidnubJqWpbS3Ix8DuiZ+sWB9aQ4lJwMNzl4gTLqgz7AdSAZ01P7vjqi7DbwBkMKMGUMDzZtHQnUuq5PUugY4S3XxTLuSJVNVavVNX0bMaJ+zK5WxbDmTqvadfJ3LiLwkaTMZgPzkdCWHVaqhJTVt0ZSGSZwBJD0pFaP6dEWNVclhXZL0xI6VuhWrp+yyvsYeoDovRkW+WV0pNCJ/M8B02hohmsyDfJ3cXqMlNbdpbvYbQOYPFoANKLk3oCd24WdVoxggZMnkQFMgD02UMtcF8FVytmnhoKtkxn4pOxPFkYiDGp0AxBBNcFoKbeyMm9aKSsVC5dLWrgDql0+Xub4WFv9DgKyDDhYfqMFuACFLcXJ8yOr5YkKyNIurYWNLx8QgVcQNmxuLNUR5nsoHc2qem/cg/PD502jMK8ugvNheII44Nra2oYMaa6KAj0hmFnLCpu50M1Hmk5D5RMcCGtrzymWk9stt49E0zTUA1eAta1UHwDX4lRdLbEichBaNb7nvjYI7gDiAHLGkPlwENWMgSdspabYUeUnvqfpve3hP1f8PUnWnS2vSCVzlcHzPnDF5PjPRdFW+zB2jkdTNWG5P9es+HWdN2K7sro/wBvXpbjpysQCuzMr8Sx4oBwP4pi4F9Z6UXFlqTKy4Rzfe9cYbNi3lpo6dCgMIk3kjKK4RH6nicHq/ul5J5YDNk/eu12+A30XXi5b0++h6SbfldfzkDlB825g27ebOl8XxHoZw9cSSLq49U7l9n5Q6rAICNdc3V0PseKWluvzEdIkI1uuY0g6wdxLnq0lvebSDyT4ElKlz22t6kSbOXNVkKQuNRjk5tIy9wVWQECcwMCiuqqSbsCFyYgAhuoU53wrjEhQnj6hlDYqmrTjIV9Xzrfl5Ho0SrpGYa5ThBr0T8lZLwuRYVy4Ke6jRNXUnvyG6Uyo8JRTdbOGGVNr2oMlrx4TD7EFmeMxEUZe6qoaZKArOTYaba3vDHqSK2DrKoUTnNToSrOznwd4YnR26pDrxiotlzxoU+bbHAriaAJH194nkA/A+kewB/2MTyUtwwvkiXnHJ7rpUbTj0s26nik1HHPpZaZ5c3uAbKzmqq+x8Q9dfyOqFb3s4V7mmeui2R9IY15n+pE1TGttDpLt6002G170C+xgwnOeb6PmiK0pXvh7i97BuDkMEWjeHJOxOHPpZd42FSme+GPeoNkPa+n4b8FjSf/02oHvD+21AD9BBvg0jkL8duwwIqMP6doFLOKggtb6+4OgPtZqj27S5GbzW3PT6oCXM2C3LWmTu3I6LURtHvXMTVdO41z7P44KuMo3XUanHCb564lmwfNV1dn5G5Ht+/dwYiJs270dGU4iud9cnVuxi0sqpxcMEihqjjoIZayCePve5klOqgTV1bW00HloqOqNRB/Z/kpYzVrUOTmhz03hHT+vmef0MyIbd081NIWesxyRN3ZY7xfPRkeKIbZbumlcNFcLlC5Hr3OYl6lQA5c8GEAmsa8ekotm1ojhqrgW4K/GU6BmgC1VoOJW2zqQogDxdTEo7DYCWnx58j4G49nIVbsCeugHrgz7J7YGONaoqJW7NLt/i5ED+en2UyBEqKu6bQ52O41FB9gEgs2r8G99Jegtgf7x+lumn50+fXr7qdP7/+hkn+6eXT0Dl7/8J);lineShape=1;strokeColor=default;" vertex="1" parent="1">
          <mxGeometry x="439.2471181472764" y="255.61538623307" width="44.40795847254886" height="17.501566072092153" as="geometry" />
        </mxCell>
        <mxCell id="EpJQi5AX8sjNgsQzGJPa-34" value="" style="shape=stencil(jVbZUsMwDPyavGpky5eeOf6DGQrNUFqmlOvvUcgEkCELb6mrtaXVau1Bzh63Vw+bIfLj6Xi427yM16ftIOdDjON+uzmOJ/sa5GKQs5vDcXN7PDztr+ffD1dT5PR1f3iednidcSFTKxMq8tu8UplC/li5nAG7cf8NoBSDiy+ZclmPT8TRxedGKazHM7Xk4pNSAvszMbt4USog/0BZffznDr/GZ0rZxU87RLB/oFAdwCgO4IDQKPiKbYsETrCUik8pGGmgZImkvmdBKFUA0B8pNdIGmixU/QmxUAM1pNKfIGXhbRXgdWorDIqeUmpeeBkKz4qOntYiFBUAhNjXUNoyTGuNa16r1bQkUBpRewAjQOgBpVKC6s5dCX8c0EsvR8pAGDZbXhfJtAi6xj1DRnIA+Qipz9/8BrsXe35CIQUts9mt4gGRBKjIMupHh6kgFTHl2p8Q0TTz4rf/BSiJT8kMCc2m9qPGkKOsvUViRy1m0P5KMEpBfLWmeYYq1bQe3yrFjqAM3UvNKrzqzL3Qnaatn3xp0IED/7imbHCgUI1Ub192zxZURFmupU+WGhVUhHmFp1WZBOiipcVwv6Tdd9o+vl4aN+NuNz9Uvv/fv0xsaX7VyMU7);lineShape=1;strokeColor=default;" vertex="1" parent="1">
          <mxGeometry x="460.73588982202614" y="257.44243840102615" width="2.326192281214797" height="1.7717211131912336" as="geometry" />
        </mxCell>
      </root>
    </mxGraphModel>
  </diagram>
</mxfile>
